<?xml version="1.0" standalone="no"?>
<!DOCTYPE svg PUBLIC "-//W3C//DTD SVG 20010904//EN"
 "http://www.w3.org/TR/2001/REC-SVG-20010904/DTD/svg10.dtd">
<svg version="1.0" xmlns="http://www.w3.org/2000/svg"
 width="1079.000000pt" height="1079.000000pt" viewBox="0 0 1079.000000 1079.000000"
 preserveAspectRatio="xMidYMid meet">
<metadata>
Created by potrace 1.14, written by Peter Selinger 2001-2017
</metadata>
<g transform="translate(0.000000,1079.000000) scale(0.100000,-0.100000)"
fill="#000000" stroke="none">
<path d="M0 5395 l0 -5395 5395 0 5395 0 0 5395 0 5395 -5395 0 -5395 0 0
-5395z m6417 5364 c15 -6 64 -17 108 -25 185 -32 255 -46 345 -70 118 -31 318
-96 430 -139 198 -76 228 -89 294 -121 39 -19 77 -34 87 -34 9 0 28 -9 41 -20
14 -11 75 -44 134 -75 60 -30 132 -68 159 -84 28 -17 67 -39 87 -51 20 -11 39
-24 43 -29 3 -6 33 -25 65 -42 33 -18 71 -41 83 -53 13 -12 36 -28 53 -36 16
-7 43 -26 59 -41 17 -14 55 -44 86 -65 30 -22 100 -77 155 -122 54 -46 129
-106 165 -133 36 -27 75 -62 86 -78 23 -30 135 -111 154 -111 15 0 365 -353
389 -392 10 -16 39 -53 64 -81 26 -29 66 -79 90 -112 25 -33 54 -70 65 -82 12
-12 21 -25 21 -29 0 -8 178 -265 194 -279 6 -6 18 -22 26 -36 8 -14 30 -48 48
-75 18 -27 30 -55 27 -65 -4 -11 4 -24 20 -37 18 -15 25 -29 25 -55 0 -20 5
-39 10 -42 6 -3 10 -22 10 -41 0 -24 5 -34 15 -34 9 0 28 -12 42 -26 25 -25
26 -27 8 -40 -17 -13 -17 -14 8 -23 16 -6 25 -18 25 -33 1 -44 15 -93 28 -101
17 -10 18 -44 2 -50 -7 -3 2 -11 20 -18 23 -10 32 -20 32 -36 0 -13 5 -23 10
-23 6 0 10 -4 10 -10 0 -5 -7 -10 -15 -10 -8 0 -15 -7 -15 -15 0 -8 5 -15 10
-15 15 0 65 -116 74 -170 8 -51 21 -70 47 -70 21 0 27 -36 7 -42 -8 -3 -8 -9
0 -24 10 -17 11 -17 12 -1 0 9 5 17 11 17 14 0 1 -88 -18 -116 -7 -12 -11 -29
-7 -38 9 -23 24 -10 24 21 0 25 0 26 20 8 11 -10 20 -30 20 -45 0 -15 11 -48
25 -73 14 -24 23 -51 20 -59 -4 -10 1 -17 14 -21 12 -3 21 -10 21 -16 0 -6 -7
-8 -15 -5 -21 9 -19 -10 5 -31 24 -22 26 -48 5 -69 -13 -13 -13 -15 5 -21 11
-3 25 -15 30 -26 9 -15 6 -24 -15 -45 -32 -32 -32 -40 4 -47 27 -6 28 -9 29
-61 0 -42 -4 -58 -16 -65 -15 -8 -13 -11 11 -20 15 -6 30 -19 34 -28 3 -10 15
-38 25 -62 l20 -44 -21 -16 c-20 -15 -20 -18 -5 -39 9 -13 14 -31 11 -42 -2
-10 -1 -24 4 -31 4 -7 4 -20 -1 -29 -6 -12 -3 -20 12 -29 17 -11 18 -15 7 -22
-12 -8 -11 -12 5 -24 14 -11 23 -12 32 -4 20 17 42 -34 24 -56 -7 -8 -18 -15
-26 -15 -7 0 -18 -9 -24 -20 -30 -55 -246 -180 -239 -138 3 17 -10 87 -21 113
-4 11 -13 49 -20 85 -6 36 -16 85 -22 110 -5 25 -13 65 -18 90 -32 164 -40
202 -54 263 -8 37 -18 73 -22 79 -4 7 -11 30 -15 53 -9 50 -35 127 -60 181
-10 23 -19 52 -19 65 -1 13 -9 42 -20 64 -11 22 -19 45 -20 52 0 12 -144 325
-186 405 -70 135 -134 268 -134 280 0 7 -18 35 -40 62 -22 27 -43 60 -47 75
-3 14 -18 44 -33 66 -15 22 -37 59 -49 83 -12 24 -30 52 -41 63 -10 11 -30 33
-43 47 -14 15 -33 47 -43 72 -10 25 -35 60 -56 79 -21 18 -48 51 -59 73 -12
23 -36 55 -54 72 -38 35 -74 82 -105 139 -11 21 -31 42 -44 47 -13 5 -34 24
-47 42 -13 18 -34 41 -46 51 -13 10 -23 25 -23 32 0 8 -13 21 -30 30 -16 9
-30 22 -30 29 0 8 -16 24 -35 36 -19 12 -35 27 -35 35 0 7 -14 15 -31 19 -24
5 -29 10 -24 25 4 14 0 20 -18 23 -21 4 -25 -1 -36 -44 -7 -26 -17 -48 -23
-48 -5 0 -6 5 -3 11 11 16 -4 59 -20 59 -28 0 -17 -47 17 -74 42 -32 32 -41
-22 -20 -35 14 -41 21 -37 40 2 13 0 24 -5 24 -5 0 -14 14 -19 30 -6 17 -15
30 -19 30 -15 0 -22 -20 -11 -33 6 -8 6 -18 1 -27 -7 -11 -4 -20 11 -30 26
-20 16 -54 -13 -44 -12 3 -24 1 -28 -7 -13 -20 0 -39 27 -39 13 0 21 -4 18
-10 -8 -12 -72 -13 -77 -1 -5 13 -48 24 -48 12 0 -6 11 -13 25 -17 23 -6 36
-34 16 -34 -5 0 -26 -7 -47 -17 -26 -10 -64 -16 -111 -15 -40 0 -73 -2 -73 -6
0 -4 7 -16 15 -26 8 -10 12 -23 8 -29 -6 -10 -9 -31 -12 -74 -1 -31 -17 -29
-25 2 -8 30 -22 32 -31 4 -5 -15 -13 -19 -27 -15 -14 3 -30 -5 -51 -25 -27
-28 -29 -32 -17 -55 16 -30 4 -46 -28 -37 -21 5 -22 7 -7 30 18 26 12 45 -10
36 -17 -6 -21 22 -5 32 15 9 2 25 -21 25 -20 0 -26 -15 -9 -25 6 -3 10 -10 10
-15 0 -8 -8 -11 -62 -26 -13 -4 -18 0 -18 15 0 12 5 21 11 21 5 0 7 5 4 10
-10 17 -25 11 -25 -10 0 -28 -14 -25 -43 10 -55 65 -64 21 -11 -52 20 -27 35
-50 33 -52 -2 -2 -21 -1 -42 2 -28 3 -41 10 -47 27 -9 25 -27 35 -47 27 -20
-7 -15 -21 20 -54 28 -26 29 -30 10 -25 -12 3 -22 2 -21 -2 1 -3 -2 -14 -7
-24 -4 -11 -1 -27 10 -43 22 -34 14 -53 -19 -47 -23 5 -28 0 -46 -38 -11 -24
-20 -37 -20 -27 0 11 -6 15 -19 11 -10 -3 -22 0 -25 6 -5 7 3 11 18 11 19 0
26 5 26 20 0 11 7 20 15 20 8 0 15 4 15 9 0 11 -30 25 -47 22 -18 -3 -16 16 2
23 22 8 18 26 -5 26 -11 0 -23 7 -26 15 -4 8 -15 15 -25 15 -10 0 -19 -7 -19
-15 0 -26 -21 -16 -35 18 -11 27 -15 29 -21 14 -5 -15 -9 -16 -15 -5 -7 10 -9
10 -9 1 0 -7 -6 -13 -14 -13 -7 0 -16 -13 -19 -30 -6 -27 -27 -43 -27 -20 0
15 -26 12 -39 -4 -18 -21 -72 -31 -81 -16 -5 8 -15 10 -26 6 -16 -6 -16 -8 -4
-16 13 -8 13 -10 -1 -10 -9 0 -19 7 -23 15 -6 17 -42 20 -51 5 -3 -5 3 -10 14
-10 24 0 25 -4 11 -31 -14 -25 -28 -24 -32 4 -2 12 -9 22 -17 22 -17 0 -34
-52 -19 -61 11 -7 -45 -44 -68 -44 -9 0 -18 9 -21 20 -3 13 -14 20 -29 20 -17
0 -24 -6 -24 -20 0 -24 -18 -27 -27 -4 -4 11 1 22 12 30 20 15 13 30 -18 36
-31 6 -19 23 20 28 28 4 39 10 41 25 2 11 8 24 13 30 17 17 9 26 -18 23 -22
-2 -28 -8 -28 -28 0 -29 -36 -40 -61 -20 -11 10 -14 9 -14 -4 0 -26 -27 -19
-34 9 -8 33 -26 32 -27 -2 -1 -16 -1 -32 0 -36 2 -10 -25 -37 -37 -37 -5 0
-14 -12 -21 -26 -11 -24 -13 -25 -29 -11 -18 17 -36 11 -38 -10 -3 -34 -4 -35
-19 -23 -11 9 -22 9 -46 1 -18 -6 -40 -11 -50 -11 -21 0 -26 19 -6 24 52 16
53 17 28 27 -15 6 -28 6 -34 0 -5 -5 -23 -5 -44 1 -19 5 -45 7 -57 4 -26 -6
-56 39 -49 77 3 16 -2 31 -15 43 -10 11 -21 26 -24 34 -2 7 -7 10 -10 4 -3 -5
0 -26 7 -47 19 -55 10 -80 -26 -72 -20 5 -29 3 -29 -6 0 -8 -7 -6 -20 6 -19
17 -21 17 -40 0 -22 -20 -23 -56 -2 -63 7 -2 16 5 19 17 3 12 10 18 17 14 12
-8 18 -10 42 -12 10 -1 14 -9 12 -23 -2 -19 -9 -23 -38 -23 -33 0 -36 -3 -31
-35 0 -5 8 -10 16 -10 11 0 15 -11 15 -40 0 -33 3 -40 19 -40 17 0 20 -7 20
-47 1 -169 10 -333 18 -349 6 -10 13 -35 17 -55 4 -21 13 -42 21 -49 8 -7 15
-21 15 -31 0 -10 5 -21 10 -24 6 -3 10 -17 10 -29 0 -13 7 -29 16 -36 8 -7 14
-25 12 -38 -4 -32 -28 -42 -28 -12 0 23 -23 51 -57 69 -13 6 -23 17 -23 24 0
7 -4 18 -9 26 -8 12 -12 12 -25 2 -19 -16 -20 -8 -5 21 9 16 6 25 -14 47 -35
37 -56 84 -63 138 -4 31 -14 55 -28 68 -12 11 -30 32 -39 48 -14 21 -25 27
-52 27 -28 0 -35 4 -35 19 0 11 6 21 13 24 6 2 -2 7 -20 11 -21 5 -33 15 -37
31 -4 14 -16 30 -29 36 -12 7 -35 27 -52 45 -16 18 -58 47 -92 64 -35 17 -67
39 -73 49 -11 22 -64 45 -85 37 -24 -9 -65 11 -65 32 0 10 11 29 25 42 32 30
32 49 -5 107 -21 32 -46 56 -77 71 -44 23 -53 24 -177 17 -72 -3 -201 -7 -286
-8 -153 -3 -156 -3 -220 -35 -36 -18 -81 -49 -100 -68 -20 -19 -40 -34 -46
-34 -5 0 -17 -9 -27 -20 -9 -11 -24 -20 -32 -20 -12 0 -15 16 -15 90 0 109 1
102 -13 118 -5 7 -14 32 -18 55 -10 54 -40 141 -51 145 -4 2 -8 15 -8 29 0 16
-7 27 -20 30 -11 3 -20 9 -20 14 0 5 -7 9 -17 9 -15 0 -14 -2 2 -20 13 -14 17
-35 17 -76 0 -30 5 -69 12 -86 7 -16 11 -41 8 -55 -4 -23 -7 -24 -53 -18 -43
6 -49 5 -49 -12 0 -24 -38 -49 -53 -34 -8 8 -6 11 7 11 9 0 14 5 11 10 -3 6 1
13 9 16 24 9 19 29 -11 44 l-28 13 25 6 c37 10 32 35 -7 39 -18 2 -33 7 -33
13 0 5 -13 9 -30 9 -30 0 -40 -13 -19 -26 6 -3 9 -17 7 -29 -3 -15 -1 -22 7
-19 14 6 41 -23 31 -33 -4 -4 -15 -2 -26 5 -13 8 -21 8 -25 1 -16 -25 -30 1
-30 57 l0 59 -32 -3 c-29 -2 -33 1 -33 23 0 20 5 25 25 25 23 0 45 24 45 49 0
30 -127 -11 -140 -44 -14 -36 -27 -38 -39 -5 -9 28 -7 34 19 62 34 35 37 48
13 48 -9 0 -13 -3 -10 -7 4 -3 -3 -11 -15 -17 -15 -7 -28 -30 -38 -63 -9 -29
-19 -55 -23 -59 -12 -13 -8 -24 11 -25 13 0 12 -2 -5 -9 -18 -7 -28 -4 -48 16
-34 34 -31 51 11 58 34 7 35 9 28 39 -3 18 -8 34 -10 36 -7 8 -24 -12 -24 -29
0 -11 -9 -21 -22 -25 -13 -4 -33 -18 -44 -32 -25 -29 -50 -24 -34 7 14 27 13
30 -15 30 -21 0 -25 5 -25 28 0 16 -9 39 -20 52 -21 24 -23 42 -5 41 6 0 11
-9 13 -21 2 -11 10 -20 18 -20 8 0 17 -7 20 -15 4 -8 10 -15 15 -15 5 0 9 7 9
15 0 8 -4 15 -10 15 -5 0 -10 14 -10 30 0 20 5 30 15 30 8 0 15 -8 15 -19 0
-10 7 -24 15 -31 9 -8 13 -21 9 -36 -7 -29 3 -30 36 -3 22 19 23 22 7 30 -10
6 -17 22 -17 39 0 29 -8 35 -40 30 -11 -1 -12 1 -4 10 9 9 17 9 32 1 30 -16
37 -14 50 14 15 32 -1 41 -42 25 -27 -10 -105 4 -107 19 -6 50 -12 56 -37 40
-19 -12 -30 -10 -62 10 -8 5 -23 12 -32 15 -26 8 -24 56 2 56 11 0 20 -4 20
-10 0 -5 11 -10 25 -10 31 0 31 6 3 31 -47 39 -88 12 -94 -62 -4 -34 -2 -35
25 -31 31 4 50 -13 32 -31 -8 -8 -14 -8 -23 1 -7 7 -20 12 -29 12 -9 0 -20 7
-23 16 -3 9 -12 14 -18 12 -7 -3 -21 4 -32 13 -15 15 -17 21 -7 33 9 11 7 20
-13 43 -43 47 -46 52 -46 63 0 6 13 13 28 16 27 5 28 8 22 42 -5 31 -10 37
-29 34 -15 -1 -41 14 -77 45 -48 42 -54 51 -49 75 4 15 3 28 -1 28 -10 0 -50
-45 -58 -65 -4 -12 -14 -16 -31 -12 -18 3 -30 -2 -39 -14 -7 -10 -16 -16 -19
-12 -13 12 -7 24 18 33 23 9 25 14 25 79 0 60 3 72 20 81 16 9 18 15 10 30 -7
13 -7 21 0 25 7 4 7 13 0 26 -15 26 -30 15 -30 -22 0 -19 -5 -29 -15 -29 -8 0
-15 7 -15 16 0 28 -25 9 -28 -22 -4 -36 -22 -57 -22 -26 0 12 -4 22 -9 22 -5
0 -22 5 -38 11 l-28 11 24 19 c15 12 31 17 43 13 12 -3 27 1 38 11 17 16 18
19 4 40 l-15 22 -30 -28 c-33 -31 -98 -41 -100 -16 -1 6 -4 1 -8 -12 -10 -36
-36 -42 -27 -6 6 22 3 28 -14 32 -11 3 -20 14 -20 24 0 10 -4 21 -10 24 -5 3
-10 11 -10 16 0 17 38 -9 45 -31 5 -17 12 -19 48 -14 51 8 66 20 37 29 -25 8
-21 30 6 30 31 0 22 27 -14 39 -25 9 -30 14 -21 23 10 10 9 14 -4 19 -26 9
-20 33 9 40 19 5 31 1 46 -16 24 -26 33 -19 42 32 6 31 4 37 -9 32 -8 -3 -15
-10 -15 -15 0 -6 -21 -7 -50 -3 l-50 7 -15 -37 c-17 -39 -13 -56 11 -56 21 0
13 -34 -9 -38 -12 -2 -17 3 -17 18 0 16 -4 20 -15 16 -29 -11 -45 4 -38 36 6
28 4 31 -15 26 -14 -4 -22 -2 -22 7 0 15 48 26 79 18 15 -4 21 -1 21 11 0 9 5
16 10 16 6 0 2 17 -9 38 -29 58 -35 97 -16 116 15 14 15 17 1 22 -23 9 -20 24
5 24 12 0 23 -8 26 -20 6 -24 21 -25 47 -5 11 8 32 15 47 15 22 0 27 5 31 30
3 17 2 32 0 35 -3 2 -31 7 -63 11 -33 4 -59 9 -59 11 0 2 6 11 14 19 10 10 17
11 21 3 5 -8 10 -8 19 1 8 8 7 13 -4 20 -12 8 -12 10 3 16 9 3 17 12 17 19 0
7 9 23 19 36 15 19 29 24 63 24 36 0 43 3 43 20 0 15 8 21 32 23 17 2 37 10
43 18 7 8 19 14 28 14 8 0 46 16 83 35 38 19 76 35 86 35 15 0 93 33 155 66
14 8 38 14 52 14 15 0 37 6 49 14 12 7 76 25 142 40 66 15 156 36 200 46 44
11 98 23 120 29 59 13 1776 14 1812 0z m-6127 -248 c0 -35 7 -41 35 -31 12 4
20 16 20 30 0 13 6 25 13 27 8 3 12 -6 12 -25 0 -49 9 -62 44 -62 18 0 38 -6
44 -12 10 -10 15 -10 22 2 11 18 -3 36 -36 44 -43 11 -16 29 34 22 34 -5 50
-2 63 10 16 14 20 14 44 -2 26 -17 26 -18 9 -31 -13 -9 -19 -26 -19 -51 0 -55
-19 -55 -25 0 -3 26 -9 50 -12 54 -15 14 -28 -10 -28 -53 0 -37 -3 -44 -16
-39 -9 3 -19 6 -24 6 -5 0 -10 8 -12 17 -3 15 -5 15 -18 2 -9 -9 -38 -16 -74
-17 -32 -1 -66 -7 -76 -12 -9 -5 -20 -6 -24 -3 -8 8 -8 138 1 146 14 15 23 6
23 -22z m480 -16 c0 -5 -11 -11 -24 -13 -21 -3 -25 -9 -28 -45 -4 -53 -22 -55
-26 -4 -3 33 -8 40 -35 49 -27 10 -29 12 -11 18 28 11 124 7 124 -5z m134 -4
c12 -13 16 -32 14 -58 -4 -48 -21 -46 -28 4 -4 30 -10 39 -27 41 -13 2 -23 10
-23 18 0 21 44 17 64 -5z m139 2 c17 -20 20 -33 18 -76 -2 -42 -25 -28 -31 19
-4 31 -9 39 -25 39 -16 0 -21 -8 -25 -39 -8 -63 -30 -58 -30 7 0 29 3 57 7 60
13 14 70 7 86 -10z m-185 -70 c-4 -23 -68 -32 -68 -9 0 16 15 24 48 25 17 1
23 -4 20 -16z m2502 -129 c0 -8 -5 -12 -10 -9 -6 4 -8 11 -5 16 9 14 15 11 15
-7z m-140 -175 c0 -5 -4 -9 -10 -9 -5 0 -10 7 -10 16 0 8 5 12 10 9 6 -3 10
-10 10 -16z m115 -9 c3 -5 1 -10 -4 -10 -6 0 -11 5 -11 10 0 6 2 10 4 10 3 0
8 -4 11 -10z m-25 -70 c0 -6 -5 -19 -12 -29 -11 -18 -12 -17 -35 2 -32 28 -29
37 12 37 19 0 35 -5 35 -10z m60 -20 c0 -23 -4 -30 -20 -30 -23 0 -27 29 -8
48 19 19 28 14 28 -18z m-55 -130 c0 -8 -8 -16 -17 -18 -13 -2 -18 3 -18 18 0
15 5 20 18 18 9 -2 17 -10 17 -18z m-205 -54 c0 -11 -19 -15 -25 -6 -3 5 1 10
9 10 9 0 16 -2 16 -4z m278 -203 c2 -7 -3 -13 -11 -13 -9 0 -23 -7 -32 -16 -9
-9 -19 -13 -23 -9 -4 3 1 11 11 16 9 6 17 17 17 25 0 18 31 15 38 -3z m59 -15
c-3 -8 -6 -5 -6 6 -1 11 2 17 5 13 3 -3 4 -12 1 -19z m53 -18 c0 -5 -4 -10
-10 -10 -5 0 -10 5 -10 10 0 6 5 10 10 10 6 0 10 -4 10 -10z m-80 -25 c0 -9
-6 -12 -15 -9 -8 4 -12 10 -9 15 8 14 24 10 24 -6z m-140 -85 c0 -5 -5 -10
-11 -10 -5 0 -7 5 -4 10 3 6 8 10 11 10 2 0 4 -4 4 -10z m60 -5 c0 -8 -4 -15
-9 -15 -13 0 -22 16 -14 24 11 11 23 6 23 -9z m130 -25 c0 -5 -9 -10 -21 -10
-11 0 -17 5 -14 10 3 6 13 10 21 10 8 0 14 -4 14 -10z m250 -30 c0 -5 9 -10
21 -10 11 0 19 -3 17 -7 -24 -51 -33 -63 -44 -63 -9 0 -11 10 -7 35 4 28 2 35
-11 35 -9 0 -16 5 -16 10 0 6 9 10 20 10 11 0 20 -4 20 -10z m-300 -10 c0 -5
-4 -10 -9 -10 -6 0 -13 5 -16 10 -3 6 1 10 9 10 9 0 16 -4 16 -10z m428 -70
c-2 -8 -14 -17 -28 -20 -16 -4 -26 -14 -28 -28 -2 -12 -6 -22 -10 -23 -4 0
-16 -2 -27 -4 -54 -10 -53 56 2 77 49 18 94 17 91 -2z m-278 -40 c0 -11 -4
-20 -9 -20 -11 0 -22 26 -14 34 12 12 23 5 23 -14z m107 -57 c-2 -16 -4 -5 -4
22 0 28 2 40 4 28 2 -13 2 -35 0 -50z m-237 38 c0 -5 -7 -11 -15 -15 -9 -3
-15 0 -15 9 0 8 7 15 15 15 8 0 15 -4 15 -9z m400 -85 c0 -25 -12 -46 -26 -46
-14 0 -20 41 -7 53 12 12 33 7 33 -7z m-180 -36 c0 -5 -4 -10 -10 -10 -5 0
-10 5 -10 10 0 6 5 10 10 10 6 0 10 -4 10 -10z m135 -50 c17 -8 16 -9 -10 -11
-16 -1 -40 -1 -52 0 -13 1 -23 -4 -23 -11 0 -7 -9 -19 -20 -26 -38 -24 -20 14
20 41 26 18 53 21 85 7z m129 -30 c25 0 44 -33 35 -58 -14 -36 -45 -25 -41 15
2 21 -2 32 -13 37 -10 3 -13 11 -9 18 6 9 9 9 12 0 2 -7 9 -12 16 -12z m214
-21 c18 -17 32 -35 32 -40 0 -12 -17 -11 -25 1 -4 6 -15 8 -26 5 -14 -5 -19
-1 -19 14 0 14 -9 23 -25 27 -34 8 -32 24 3 24 18 0 40 -11 60 -31z m-288 -4
c0 -8 -44 -23 -53 -18 -14 8 4 23 29 23 13 0 24 -2 24 -5z m-110 -55 c0 -11
-4 -20 -10 -20 -5 0 -10 9 -10 20 0 11 5 20 10 20 6 0 10 -9 10 -20z m350 -17
c0 -10 -4 -24 -9 -31 -6 -10 -10 -8 -14 9 -3 12 -4 26 -1 31 9 14 24 9 24 -9z
m4798 -41 c4 -26 -22 -31 -32 -6 -10 26 -7 36 12 32 9 -2 18 -13 20 -26z
m-4868 -13 c0 -5 -4 -8 -9 -4 -6 3 -19 -4 -30 -16 -13 -14 -26 -19 -40 -14
-31 10 -25 25 9 25 17 0 30 5 30 10 0 6 9 10 20 10 11 0 20 -5 20 -11z m4790
-18 c0 -5 -10 -11 -22 -14 -22 -6 -22 -6 -4 8 23 17 26 18 26 6z m-4750 -11
c0 -5 -4 -10 -9 -10 -6 0 -13 5 -16 10 -3 6 1 10 9 10 9 0 16 -4 16 -10z m50
-24 c0 -9 -9 -14 -20 -13 -20 1 -25 9 -13 20 12 12 33 7 33 -7z m4560 -33 c28
-24 25 -33 -11 -33 -24 0 -30 3 -25 16 3 9 6 20 6 25 0 13 7 11 30 -8z m-170
-54 c0 -12 -11 -32 -25 -45 -26 -24 -65 -41 -65 -27 0 4 -3 17 -6 29 -4 16 2
26 28 42 43 28 68 28 68 1z m275 1 c3 -5 1 -10 -4 -10 -6 0 -11 5 -11 10 0 6
2 10 4 10 3 0 8 -4 11 -10z m-4805 -30 c0 -5 -4 -10 -9 -10 -6 0 -13 5 -16 10
-3 6 1 10 9 10 9 0 16 -4 16 -10z m151 -5 c0 -6 -10 -17 -22 -25 -13 -8 -21
-10 -18 -5 3 6 9 18 12 28 7 19 29 20 28 2z m4719 1 c0 -3 -4 -8 -10 -11 -5
-3 -10 -1 -10 4 0 6 5 11 10 11 6 0 10 -2 10 -4z m-4675 -16 c3 -5 1 -10 -4
-10 -6 0 -11 5 -11 10 0 6 2 10 4 10 3 0 8 -4 11 -10z m275 -9 c0 -4 -12 -6
-27 -5 -35 2 -35 2 -29 13 6 9 56 2 56 -8z m-150 -1 c0 -5 -7 -10 -15 -10 -8
0 -15 5 -15 10 0 6 7 10 15 10 8 0 15 -4 15 -10z m4387 -5 c3 -9 3 -18 1 -21
-9 -9 -38 8 -38 22 0 19 29 18 37 -1z m-87 -24 c0 -6 -5 -13 -10 -16 -6 -4 -8
-15 -5 -25 10 -33 -13 -31 -26 3 -7 17 -14 35 -17 40 -2 4 10 7 27 7 17 0 31
-4 31 -9z m-4163 -43 c-3 -8 -6 -5 -6 6 -1 11 2 17 5 13 3 -3 4 -12 1 -19z
m3902 -24 c-9 -11 -15 -12 -25 -3 -11 9 -12 15 -3 25 9 11 15 12 25 3 11 -9
12 -15 3 -25z m-3501 -27 c4 -29 -9 -35 -27 -13 -13 16 -4 49 13 43 6 -2 12
-16 14 -30z m-328 9 c0 -3 -4 -8 -10 -11 -5 -3 -10 -1 -10 4 0 6 5 11 10 11 6
0 10 -2 10 -4z m3960 -21 c0 -34 -42 -35 -57 -2 -10 21 -8 23 23 25 30 2 34 0
34 -23z m-310 -4 c0 -5 3 -17 6 -26 4 -9 3 -15 -2 -14 -23 4 -34 -3 -34 -20 0
-25 -12 -32 -30 -20 -13 8 -11 12 8 28 12 11 22 29 22 40 0 12 6 21 15 21 8 0
15 -4 15 -9z m165 -15 c22 -22 23 -28 13 -57 -10 -30 -12 -31 -25 -14 -7 11
-13 29 -13 42 0 13 -7 26 -15 29 -16 6 -11 24 6 24 5 0 21 -11 34 -24z m235
-1 c0 -14 -4 -25 -10 -25 -5 0 -10 11 -10 25 0 14 5 25 10 25 6 0 10 -11 10
-25z m-3947 8 c-7 -2 -19 -2 -25 0 -7 3 -2 5 12 5 14 0 19 -2 13 -5z m3665
-55 c-6 -18 -28 -21 -28 -4 0 9 7 16 16 16 9 0 14 -5 12 -12z m-585 -29 c5
-18 11 -21 36 -16 18 4 31 2 31 -4 0 -21 -36 -48 -70 -51 -29 -2 -35 -7 -33
-24 2 -14 -7 -26 -25 -35 -15 -7 -30 -15 -34 -17 -4 -2 -12 6 -18 18 -9 17 -8
22 7 27 32 12 83 72 83 98 0 31 16 33 23 4z m311 15 c9 -3 16 -13 16 -21 0
-21 -54 -13 -58 10 -4 18 13 22 42 11z m621 -14 c-3 -5 -10 -10 -16 -10 -5 0
-9 5 -9 10 0 6 7 10 16 10 8 0 12 -4 9 -10z m-445 -26 c0 -3 -9 -19 -21 -35
-24 -34 -40 -29 -37 12 2 25 6 29 30 29 15 0 28 -3 28 -6z m-3310 -14 c0 -5
-2 -10 -4 -10 -3 0 -8 5 -11 10 -3 6 -1 10 4 10 6 0 11 -4 11 -10z m3216 -24
c12 -19 13 -29 5 -43 -10 -17 -10 -16 -11 4 0 12 -7 26 -16 31 -9 5 -14 14
-10 21 10 16 13 14 32 -13z m-308 -11 c-3 -3 -9 2 -12 12 -6 14 -5 15 5 6 7
-7 10 -15 7 -18z m-2963 -25 c-5 -8 -11 -8 -17 -2 -6 6 -7 16 -3 22 5 8 11 8
17 2 6 -6 7 -16 3 -22z m2275 4 c11 -28 -1 -54 -25 -54 -21 0 -26 42 -8 62 21
23 22 23 33 -8z m-2625 6 c-3 -5 -13 -10 -21 -10 -8 0 -12 5 -9 10 3 6 13 10
21 10 8 0 12 -4 9 -10z m3003 -63 c3 -47 -4 -57 -26 -35 -7 7 -8 17 -2 28 7
13 5 22 -5 30 -18 15 -9 32 13 28 13 -2 18 -16 20 -51z m312 44 c0 -6 -4 -12
-8 -15 -5 -3 -9 1 -9 9 0 8 4 15 9 15 4 0 8 -4 8 -9z m-1120 -5 c0 -3 -4 -8
-10 -11 -5 -3 -10 -1 -10 4 0 6 5 11 10 11 6 0 10 -2 10 -4z m480 -21 c0 -8
-7 -15 -15 -15 -13 0 -14 3 -3 15 16 18 18 18 18 0z m1327 -7 c-3 -8 -6 -5 -6
6 -1 11 2 17 5 13 3 -3 4 -12 1 -19z m-1682 -18 c10 -11 22 -17 26 -14 10 6
12 -29 3 -39 -6 -6 -75 31 -86 47 -20 30 31 35 57 6z m265 -11 c0 -14 -19 -21
-40 -14 -33 10 -24 32 10 27 17 -2 30 -8 30 -13z m880 -4 c0 -8 -7 -15 -15
-15 -8 0 -15 7 -15 15 0 8 7 15 15 15 8 0 15 -7 15 -15z m210 5 c0 -5 -7 -10
-15 -10 -8 0 -15 5 -15 10 0 6 7 10 15 10 8 0 15 -4 15 -10z m-730 -20 c0 -11
-4 -20 -10 -20 -5 0 -10 9 -10 20 0 11 5 20 10 20 6 0 10 -9 10 -20z m-2905
-10 c0 -7 -6 -15 -12 -17 -8 -3 -13 4 -13 17 0 13 5 20 13 18 6 -3 12 -11 12
-18z m1343 -2 c3 -13 -3 -18 -22 -18 -27 0 -41 14 -31 31 10 16 49 6 53 -13z
m777 -36 c-6 -16 -7 -16 -17 1 -5 10 -7 26 -3 35 6 16 7 16 17 -1 5 -10 7 -26
3 -35z m90 8 c6 -27 9 -29 38 -23 31 6 31 5 16 -13 -9 -10 -20 -29 -24 -42 -6
-22 -7 -22 -21 -5 -7 10 -14 26 -14 36 0 17 -15 24 -23 10 -2 -5 -1 -1 1 7 3
8 5 27 5 42 0 35 13 27 22 -12z m578 23 c-6 -15 -39 -18 -47 -4 -7 10 7 17 34
17 10 0 16 -6 13 -13z m402 7 c-3 -5 -11 -10 -16 -10 -6 0 -7 5 -4 10 3 6 11
10 16 10 6 0 7 -4 4 -10z m150 0 c3 -5 -3 -10 -14 -10 -12 0 -21 5 -21 10 0 6
6 10 14 10 8 0 18 -4 21 -10z m-920 -10 c-3 -5 -13 -10 -20 -10 -9 0 -12 -6
-9 -15 4 -9 0 -15 -10 -15 -9 0 -16 4 -16 9 0 25 15 41 37 41 13 0 21 -4 18
-10z m1051 -37 c-11 -11 -19 6 -11 24 8 17 8 17 12 0 3 -10 2 -21 -1 -24z
m-916 12 c0 -17 -2 -18 -24 -9 -23 9 -20 24 4 24 11 0 20 -7 20 -15z m558 -2
c2 -8 -5 -13 -17 -13 -12 0 -21 6 -21 16 0 18 31 15 38 -3z m312 -12 c0 -5 -7
-14 -15 -21 -16 -14 -18 -10 -9 14 6 17 24 22 24 7z m-930 -11 c0 -5 -4 -10
-9 -10 -6 0 -13 5 -16 10 -3 6 1 10 9 10 9 0 16 -4 16 -10z m945 -20 c3 -5 1
-10 -4 -10 -6 0 -11 5 -11 10 0 6 2 10 4 10 3 0 8 -4 11 -10z m-1285 -20 c-6
-11 -12 -20 -14 -20 -2 0 -2 9 1 20 3 11 9 20 15 20 5 0 4 -9 -2 -20z m580 16
c0 -3 -4 -8 -10 -11 -5 -3 -10 -1 -10 4 0 6 5 11 10 11 6 0 10 -2 10 -4z m59
-28 c-8 -14 -14 -18 -17 -10 -4 13 17 46 25 38 3 -2 -1 -15 -8 -28z m169 -36
c2 -7 -3 -12 -12 -12 -9 0 -16 7 -16 16 0 17 22 14 28 -4z m-261 -64 c-3 -8
-6 -5 -6 6 -1 11 2 17 5 13 3 -3 4 -12 1 -19z m-437 -18 c0 -5 -4 -10 -10 -10
-5 0 -10 5 -10 10 0 6 5 10 10 10 6 0 10 -4 10 -10z m-524 -537 c-10 -10 -19
5 -10 18 6 11 8 11 12 0 2 -7 1 -15 -2 -18z m107 -30 c19 -37 31 -172 17 -188
-8 -10 -6 -13 7 -11 15 1 18 -7 18 -54 0 -30 3 -60 7 -66 4 -6 5 -14 1 -18
-12 -12 -34 -6 -40 12 -4 9 -15 23 -26 31 -12 9 -17 21 -14 37 3 18 0 24 -14
24 -11 0 -19 4 -19 10 0 5 -10 19 -22 31 -16 15 -19 23 -10 26 6 3 12 16 12
29 0 18 -5 24 -23 24 -33 0 -40 10 -20 33 17 18 17 19 0 28 -22 13 -22 29 1
29 11 0 24 11 30 25 9 20 19 25 47 25 28 0 37 -5 48 -27z m-143 2 c0 -9 -6
-12 -15 -9 -8 4 -12 10 -9 15 8 14 24 10 24 -6z m540 -44 c0 -23 6 -44 16 -51
8 -8 14 -25 13 -39 -2 -14 5 -41 15 -59 9 -18 14 -36 12 -41 -3 -5 3 -19 14
-31 11 -13 20 -28 20 -35 0 -19 179 -140 266 -181 l79 -36 95 7 c52 4 106 8
120 8 48 0 219 -21 232 -29 6 -4 44 -11 82 -15 76 -8 163 -28 209 -47 16 -7
36 -12 47 -12 10 0 31 -7 46 -15 16 -8 43 -15 59 -15 44 -1 176 -49 139 -50
-5 -1 -112 -3 -237 -5 -149 -3 -251 -9 -295 -19 -37 -8 -137 -22 -222 -31
-147 -17 -249 -35 -385 -69 -33 -8 -77 -19 -99 -25 -21 -5 -43 -14 -49 -20 -6
-6 -24 -11 -39 -11 -15 0 -28 -4 -28 -10 0 -5 -17 -12 -37 -16 -21 -4 -44 -13
-51 -21 -16 -15 -46 -14 -44 2 1 6 12 12 24 13 13 2 27 10 31 18 4 8 16 14 25
14 9 0 26 7 36 15 11 8 32 15 47 15 15 0 29 7 33 15 3 8 14 15 23 15 10 0 50
13 88 30 39 16 77 30 86 30 9 0 22 7 29 15 7 8 20 15 28 15 27 0 102 32 96 41
-8 13 -40 11 -93 -6 -104 -32 -155 -45 -182 -45 -15 0 -31 -4 -34 -10 -3 -5
-14 -10 -23 -10 -9 0 -30 -7 -46 -15 -15 -8 -38 -15 -50 -15 -11 0 -30 -7 -40
-15 -11 -8 -28 -15 -38 -15 -10 0 -30 -7 -43 -16 -14 -9 -32 -13 -41 -10 -14
5 -9 12 24 33 40 26 80 91 68 111 -3 5 5 13 18 16 37 9 45 84 16 151 -12 28
-29 58 -37 68 -11 12 -17 40 -18 89 -2 42 -7 74 -14 76 -6 2 -11 15 -11 28 0
14 -7 27 -15 30 -17 7 -21 69 -5 79 6 3 10 37 10 74 0 37 3 71 6 74 14 13 24
-5 24 -42z m-90 -291 c0 -5 -4 -10 -9 -10 -6 0 -13 5 -16 10 -3 6 1 10 9 10 9
0 16 -4 16 -10z m-520 -71 c0 -10 -4 -19 -9 -19 -14 0 -33 28 -27 39 10 16 36
1 36 -20z m2210 -329 c0 -5 -6 -10 -14 -10 -8 0 -18 5 -21 10 -3 6 3 10 14 10
12 0 21 -4 21 -10z m65 -21 c11 -16 -2 -22 -32 -14 -26 7 -26 8 -8 15 28 12
33 12 40 -1z m2182 -36 c-4 -17 -4 -17 -12 0 -4 9 -4 25 0 35 8 16 8 16 12 0
3 -10 3 -26 0 -35z m-2667 -28 c23 -8 67 -15 96 -15 29 0 68 -6 86 -14 18 -8
51 -22 73 -31 22 -9 52 -23 67 -31 14 -7 45 -14 67 -14 45 0 104 -37 206 -130
28 -25 71 -63 97 -86 59 -52 164 -182 183 -228 8 -19 19 -37 25 -41 5 -3 10
-19 10 -36 0 -39 -28 -39 -43 1 -6 17 -15 30 -20 30 -14 0 -67 60 -67 76 0 8
-13 26 -28 41 -15 16 -36 40 -45 56 -19 29 -47 36 -47 11 0 -8 14 -35 30 -59
17 -24 30 -53 30 -65 0 -26 18 -62 36 -73 19 -11 18 -37 -1 -37 -20 0 -138
-59 -147 -74 -5 -8 -13 -7 -28 2 -25 16 -40 8 -40 -21 -1 -22 -1 -22 -16 -2
-11 14 -14 32 -10 57 5 30 3 38 -13 43 -11 3 -39 29 -63 58 -80 96 -118 119
-118 72 0 -14 -4 -25 -9 -25 -5 0 -7 -13 -5 -30 6 -33 -3 -39 -21 -13 -14 19
-37 9 -28 -12 3 -8 0 -15 -6 -15 -6 0 -11 7 -11 15 0 10 -10 15 -30 15 -38 0
-38 15 0 35 18 9 28 21 24 27 -5 7 2 9 20 6 22 -5 29 -1 37 19 12 32 12 33 -9
33 -10 0 -27 -8 -38 -18 -23 -22 -62 -34 -70 -21 -3 5 -10 9 -16 9 -6 0 -6 -6
2 -15 11 -13 10 -18 -6 -30 -25 -19 -54 -10 -82 26 -13 16 -28 29 -33 29 -5 0
-28 12 -52 27 -61 40 -109 62 -134 63 -12 0 -24 4 -27 9 -3 4 -28 11 -56 13
-28 3 -54 8 -58 12 -3 4 1 21 11 38 25 43 11 49 -24 10 -16 -17 -33 -32 -39
-32 -6 0 -13 -7 -16 -15 -8 -20 -34 -19 -49 2 -7 9 -19 14 -29 10 -20 -8 -21
-27 -1 -27 18 0 18 -2 2 -43 -8 -18 -12 -36 -11 -42 7 -22 -33 -58 -65 -57
-33 1 -39 -9 -17 -27 7 -6 21 -36 31 -66 9 -30 21 -55 26 -55 5 0 9 -11 9 -24
0 -13 7 -29 15 -36 8 -7 15 -18 15 -25 0 -7 7 -18 16 -26 8 -7 13 -21 11 -30
-3 -10 1 -20 9 -23 8 -3 14 -20 14 -38 0 -18 7 -42 15 -52 20 -26 20 -92 0
-100 -11 -4 -15 1 -15 17 0 13 -4 27 -9 32 -5 6 -11 26 -13 45 -2 29 -7 35
-25 33 -16 -2 -29 9 -50 42 -15 25 -33 45 -39 45 -5 0 -23 14 -39 30 -22 23
-25 30 -12 30 9 0 17 7 17 15 0 17 -16 20 -25 5 -11 -17 -24 -11 -31 15 -3 14
-9 25 -13 25 -4 0 -22 14 -39 31 -29 29 -62 34 -62 11 0 -11 40 -55 61 -68 25
-15 50 -74 39 -93 -6 -12 -2 -23 18 -44 19 -19 23 -30 15 -38 -18 -18 -48 -6
-51 21 -2 13 -15 34 -27 46 l-24 22 6 -49 c6 -47 5 -49 -20 -49 -24 0 -25 -3
-20 -35 6 -36 -12 -51 -23 -20 -4 8 -12 15 -19 15 -7 0 -16 8 -20 18 -6 13
-10 6 -19 -27 -10 -39 -15 -46 -45 -54 -19 -5 -40 -16 -46 -24 -11 -14 -14
-14 -33 5 -12 12 -22 24 -22 26 0 3 -11 16 -24 31 -21 22 -25 23 -36 10 -11
-14 -10 -17 8 -22 12 -3 22 -12 22 -20 0 -8 10 -23 23 -34 l22 -19 -23 -19
c-25 -22 -20 -51 8 -51 27 0 53 -45 40 -70 -12 -23 -30 -26 -48 -8 -9 9 -12 8
-12 -4 0 -9 -9 -18 -20 -21 -11 -3 -20 -9 -19 -14 5 -26 -2 -34 -23 -27 -33 9
-33 12 -13 34 23 25 14 36 -15 18 -18 -11 -23 -11 -35 6 -13 17 -15 17 -30 2
-9 -9 -31 -16 -48 -17 -18 0 -26 -3 -19 -6 14 -6 16 -39 2 -48 -5 -3 -21 0
-35 8 l-26 13 21 26 c25 32 26 48 2 48 -10 0 -30 14 -45 31 -22 25 -32 30 -53
25 -19 -5 -32 0 -55 24 -35 35 -59 38 -66 10 -9 -34 -26 -23 -19 12 7 38 22
49 53 42 30 -8 47 4 32 22 -13 16 -64 13 -81 -4 -12 -12 -38 -16 -38 -7 0 3 4
13 9 23 5 9 12 25 15 36 4 10 12 16 20 13 8 -3 19 5 26 19 8 13 18 24 25 24
24 0 65 -26 65 -41 0 -9 11 -28 25 -43 14 -15 25 -36 25 -47 0 -24 5 -24 30 1
18 18 18 20 2 29 -26 15 -4 29 51 33 43 3 48 1 54 -21 3 -14 -1 -35 -11 -51
-9 -16 -16 -35 -16 -44 0 -9 -7 -16 -15 -16 -8 0 -15 6 -15 14 0 17 -18 31
-27 22 -12 -12 30 -87 46 -84 9 2 15 11 15 21 -3 26 13 20 20 -8 7 -26 26 -35
26 -11 0 16 45 66 60 66 14 0 9 42 -5 47 -6 2 -22 -15 -35 -37 -28 -44 -40
-50 -40 -20 0 11 5 20 10 20 6 0 10 9 10 19 0 11 5 23 11 26 12 8 3 63 -14 83
-6 7 -16 11 -24 8 -7 -3 -13 -1 -13 5 0 5 7 12 15 15 29 11 15 23 -32 26 -50
3 -68 22 -33 33 43 14 3 24 -114 30 -66 3 -121 7 -124 9 -12 13 13 26 38 21
37 -8 46 9 16 29 -38 24 -58 106 -26 106 4 0 13 -15 20 -32 11 -30 13 -31 20
-13 5 11 9 39 9 61 1 43 -9 54 -50 54 -16 0 -18 5 -13 27 7 25 6 26 -33 21
-62 -9 -95 21 -58 52 9 7 15 29 15 51 0 36 2 39 29 39 16 0 34 6 40 14 19 22
140 76 171 76 15 0 33 6 39 14 7 8 31 16 54 19 41 4 76 15 145 43 42 18 244
19 272 2 15 -10 26 -10 53 0 18 7 48 12 66 12 21 0 41 9 57 25 14 15 36 25 52
25 32 0 53 16 45 36 -3 8 3 16 13 20 11 3 33 11 49 19 17 8 73 15 126 17 84 3
102 7 135 30 22 14 51 29 67 32 15 4 27 11 27 16 0 14 31 12 80 -5z m-1285
-24 c17 -7 16 -9 -10 -15 -17 -4 -38 -14 -47 -23 -20 -18 -63 -14 -63 6 0 8
18 20 40 27 48 14 54 15 80 5z m-962 -23 c6 -17 -4 -111 -12 -120 -4 -4 -38 2
-76 14 -39 11 -76 22 -84 25 -16 4 32 53 53 53 8 0 19 6 26 14 10 13 26 18 77
25 6 0 13 -5 16 -11z m1005 -70 c-3 -7 -11 -13 -18 -13 -7 0 -15 6 -17 13 -3
7 4 12 17 12 13 0 20 -5 18 -12z m3442 -53 c52 -52 53 -55 37 -73 -21 -23 -21
-36 -2 -52 8 -7 14 -28 14 -48 0 -51 11 -114 24 -130 12 -15 -6 -32 -34 -32
-31 0 -47 -34 -56 -115 -7 -69 -11 -80 -27 -80 -13 0 -28 15 -43 44 -12 24
-33 51 -45 59 -12 9 -29 23 -38 31 -23 22 -57 41 -72 41 -8 0 -18 10 -23 22
-6 13 -19 24 -30 26 -45 7 -51 12 -32 27 14 10 20 31 23 87 6 100 12 126 35
138 11 6 19 21 19 35 0 29 47 69 69 59 36 -15 68 -15 80 0 22 26 43 18 101
-39z m-4628 10 c6 -14 23 -27 38 -30 16 -4 30 -15 33 -26 6 -24 -4 -24 -45 1
-18 11 -42 20 -53 20 -11 0 -33 7 -49 15 -15 8 -39 15 -52 15 -26 0 -41 16
-22 23 7 3 41 6 76 6 57 1 63 -1 74 -24z m-242 -65 c0 -5 10 -10 23 -10 29 0
51 -15 43 -29 -11 -16 -199 -15 -194 2 3 6 26 17 52 24 27 7 51 14 54 18 9 8
22 6 22 -5z m148 -54 c9 -10 -11 -26 -32 -26 -26 0 -50 22 -38 34 7 7 61 1 70
-8z m97 -35 c3 -5 1 -12 -5 -16 -13 -8 -50 3 -50 16 0 12 47 12 55 0z m2073
-112 c-2 -28 -7 -33 -23 -31 -28 5 -31 11 -17 30 7 9 15 25 19 35 9 29 25 4
21 -34z m130 -6 c2 -9 -7 -13 -27 -13 -30 0 -39 9 -24 24 11 10 46 3 51 -11z
m97 -23 c3 -6 -2 -13 -12 -16 -10 -3 -28 -11 -40 -17 -29 -13 -101 -15 -105
-2 -2 6 15 11 36 13 21 2 45 10 53 18 17 16 59 19 68 4z m-5985 -60 c36 -34
41 -86 10 -116 -11 -10 -28 -27 -39 -37 -10 -10 -21 -39 -25 -67 -4 -26 -15
-59 -25 -72 l-19 -23 -6 25 c-3 14 -7 50 -10 80 -3 30 -6 56 -6 58 0 1 -8 2
-19 2 -32 0 -44 25 -36 78 8 58 14 68 50 91 39 23 88 15 125 -19z m3550 12 c0
-9 9 -23 21 -30 17 -11 18 -16 8 -28 -7 -9 -26 -22 -42 -30 -26 -14 -31 -14
-47 1 -11 10 -16 24 -13 33 4 10 3 14 -2 10 -4 -4 -10 -22 -14 -40 -5 -24 -13
-34 -29 -36 -26 -4 -31 22 -6 36 13 7 14 11 3 17 -7 5 -14 4 -17 -3 -4 -14
-62 -16 -62 -2 0 6 7 10 15 10 8 0 15 4 15 10 0 5 11 12 24 16 14 3 27 12 30
20 7 18 40 18 55 1 6 -8 10 -16 8 -18 -1 -2 4 2 11 10 6 8 12 21 12 28 0 7 7
13 15 13 8 0 15 -8 15 -18z m-361 -26 c12 -13 21 -30 19 -37 -2 -9 5 -14 20
-13 12 0 22 -3 22 -8 0 -4 9 -17 19 -27 20 -20 19 -20 -9 -58 -55 -73 -105
-123 -122 -123 -11 0 -18 -8 -18 -19 0 -10 -7 -24 -15 -31 -8 -7 -15 -20 -15
-29 0 -9 -5 -23 -10 -31 -18 -29 -40 11 -47 86 -3 38 -11 76 -18 84 -7 8 -15
40 -18 70 -2 30 -8 66 -12 80 -6 21 -5 23 6 13 19 -18 24 -16 37 12 9 19 19
25 41 25 17 0 36 7 43 15 19 21 52 18 77 -9z m2869 12 c-5 -15 -68 -24 -68
-10 0 15 13 22 43 22 18 0 27 -4 25 -12z m-413 -28 c3 -5 1 -10 -4 -10 -6 0
-11 5 -11 10 0 6 2 10 4 10 3 0 8 -4 11 -10z m325 2 c0 -13 -12 -22 -22 -16
-10 6 -1 24 13 24 5 0 9 -4 9 -8z m173 -9 c-7 -2 -13 -11 -13 -18 0 -7 -7 -16
-16 -19 -16 -6 -34 0 -34 12 0 9 41 29 60 30 10 0 11 -1 3 -5z m-2803 -53 c0
-5 -7 -10 -15 -10 -8 0 -18 0 -22 -1 -4 0 -9 4 -11 10 -2 6 8 11 22 11 14 0
26 -4 26 -10z m3103 -14 c20 -15 23 -46 5 -46 -21 1 -48 26 -48 44 0 19 18 20
43 2z m-273 -16 c0 -5 -7 -10 -15 -10 -8 0 -15 -4 -15 -9 0 -12 -50 -44 -57
-37 -3 3 9 19 27 36 32 30 60 39 60 20z m96 -22 c4 -6 2 -14 -4 -16 -6 -2 -36
-24 -67 -49 -35 -29 -60 -43 -71 -39 -13 5 -11 11 13 37 33 36 93 79 110 79 6
0 15 -5 19 -12z m-7462 -17 c24 -27 17 -53 -17 -62 -33 -9 -77 4 -77 23 0 18
41 58 60 58 9 0 25 -9 34 -19z m1376 4 c17 -21 3 -57 -22 -53 -30 4 -45 32
-29 52 17 20 35 20 51 1z m2784 -56 c5 -44 4 -65 -6 -77 -12 -15 -11 -16 4 -4
24 19 38 7 38 -31 0 -42 -9 -53 -46 -60 -28 -5 -37 -1 -74 35 -31 31 -44 38
-50 28 -4 -7 -17 -11 -28 -8 -16 5 -21 0 -24 -23 -3 -21 -1 -28 11 -26 29 3
101 -37 101 -55 0 -10 8 -18 18 -18 9 0 24 -4 31 -9 12 -8 9 -11 -13 -17 -17
-4 -31 -2 -35 4 -3 6 -24 24 -45 41 l-39 31 -21 -23 c-12 -13 -31 -29 -42 -35
-17 -10 -17 -11 -1 -12 9 0 17 -7 17 -15 0 -7 8 -18 17 -24 10 -5 14 -13 10
-17 -4 -4 -13 -2 -19 4 -7 7 -27 12 -45 12 -21 0 -35 6 -38 15 -16 51 -17 51
-26 27 -13 -33 10 -52 135 -117 38 -19 72 -35 77 -35 4 0 50 -20 101 -45 51
-25 97 -45 101 -45 4 0 35 -13 69 -30 33 -16 69 -30 79 -30 11 0 30 -6 42 -14
12 -8 47 -19 77 -26 30 -6 75 -18 100 -25 25 -7 72 -21 105 -31 79 -22 92 -35
77 -70 -20 -43 -27 -140 -11 -150 17 -11 126 -42 188 -53 57 -11 72 -31 59
-75 -19 -60 -6 -80 85 -134 45 -27 89 -52 97 -55 8 -4 22 -11 30 -16 8 -5 22
-12 30 -16 8 -3 29 -14 45 -23 17 -9 59 -32 93 -51 82 -45 91 -62 58 -106
l-26 -34 36 -17 c35 -17 44 -26 87 -94 17 -27 33 -38 67 -46 42 -10 48 -16 93
-90 26 -43 60 -105 74 -136 15 -32 31 -58 35 -58 4 0 8 -9 8 -19 0 -11 4 -22
9 -26 5 -3 35 -54 67 -113 31 -59 65 -118 76 -131 14 -19 26 -81 16 -81 -2 0
-36 -14 -77 -30 -40 -17 -81 -30 -90 -30 -9 0 -22 -5 -29 -12 -12 -12 -71 -36
-112 -45 -14 -3 -34 -12 -45 -19 -11 -8 -29 -14 -41 -14 -12 0 -27 -7 -34 -15
-7 -8 -20 -15 -29 -15 -9 0 -48 -13 -86 -30 -39 -16 -78 -30 -87 -30 -10 0
-18 -4 -18 -10 0 -5 -5 -10 -11 -10 -6 0 -25 -6 -42 -14 -18 -7 -52 -21 -77
-30 -25 -10 -58 -24 -73 -32 -16 -8 -33 -14 -38 -14 -10 0 -126 -52 -171 -76
-14 -8 -33 -14 -43 -14 -9 0 -28 -6 -43 -14 -46 -23 -82 -28 -82 -12 0 8 12
19 28 25 15 5 43 19 62 30 58 33 123 61 141 61 10 0 21 5 24 11 4 5 18 14 31
19 13 5 24 13 24 18 0 14 -44 67 -57 68 -7 1 -26 2 -43 3 -16 0 -30 4 -30 9 1
14 130 85 156 85 32 0 41 20 21 50 -22 34 -26 82 -7 82 10 0 16 -12 18 -32 4
-36 13 -41 32 -18 11 13 15 13 21 3 7 -10 11 -10 24 3 19 19 10 49 -16 49 -11
0 -19 7 -19 16 0 13 3 14 15 4 8 -6 22 -10 32 -8 10 2 23 -3 29 -11 6 -8 16
-11 22 -7 15 9 3 36 -17 36 -26 1 19 25 46 25 30 0 34 19 6 23 -13 2 -23 6
-23 10 0 16 18 34 28 29 17 -11 102 94 102 127 0 6 7 21 14 32 13 17 13 21 -7
36 l-22 18 22 0 c12 0 27 9 33 20 6 11 21 20 35 20 13 0 26 4 30 9 3 5 18 12
34 16 16 3 37 15 47 26 17 18 17 22 4 32 -9 7 -14 20 -12 30 6 28 -6 51 -21
40 -6 -5 -30 -15 -52 -22 -42 -13 -60 -21 -167 -70 -37 -17 -72 -31 -78 -31
-6 0 -18 -4 -28 -9 -115 -59 -310 -137 -319 -127 -3 3 -19 -6 -35 -19 -16 -14
-39 -25 -50 -25 -12 0 -26 -7 -33 -16 -8 -11 -19 -14 -33 -10 -33 11 -27 25
22 46 24 10 47 23 50 29 4 6 16 11 26 11 10 0 20 5 22 10 2 6 21 14 43 18 45
8 165 80 165 99 0 21 -19 24 -46 7 -22 -15 -31 -16 -60 -5 -37 13 -68 5 -40
-11 26 -15 9 -28 -37 -28 -23 0 -65 -6 -94 -14 -61 -16 -72 -11 -37 16 17 14
32 18 51 13 23 -5 25 -4 14 9 -11 13 -11 16 2 16 9 0 20 7 24 15 5 8 29 25 53
38 34 16 48 31 56 57 6 19 16 36 23 38 6 2 11 9 11 16 0 7 10 18 23 25 12 6
36 20 52 30 32 21 75 27 75 11 0 -5 -9 -10 -19 -10 -26 0 -34 -15 -17 -29 10
-9 25 -6 62 14 27 13 59 33 72 43 21 16 22 20 8 31 -10 8 -28 11 -46 7 -29 -5
-41 6 -20 19 12 8 -23 61 -60 90 -14 11 -43 38 -65 61 -22 23 -76 70 -120 106
-44 35 -94 77 -110 93 -17 17 -50 46 -75 65 -25 19 -60 49 -77 66 -18 18 -55
46 -82 63 -27 18 -55 39 -61 46 -9 11 -17 12 -30 5 -10 -6 -30 -10 -44 -10
-22 0 -26 -5 -26 -29 0 -33 -18 -51 -31 -30 -5 9 -13 0 -27 -31 -17 -39 -94
-130 -110 -130 -3 0 -14 7 -23 16 -14 13 -16 21 -8 36 6 10 18 18 27 17 38 -3
52 2 52 19 0 10 -5 23 -11 29 -12 12 -3 53 12 53 5 0 9 -11 9 -25 0 -16 6 -25
16 -25 10 0 15 8 14 23 -3 36 -1 43 25 71 18 19 25 38 25 64 -1 33 -2 35 -14
20 -19 -25 -36 -22 -36 6 0 27 -12 33 -73 35 -26 1 -37 -2 -36 -11 3 -21 -13
-78 -21 -78 -11 0 -22 64 -14 84 5 13 -1 16 -30 16 -20 0 -36 3 -36 8 0 10
-86 57 -151 81 -31 12 -64 30 -74 41 -10 11 -30 20 -45 20 -15 0 -33 6 -39 14
-6 7 -25 16 -40 19 -16 4 -38 16 -49 27 -11 12 -38 24 -61 27 -48 7 -76 -12
-86 -58 -4 -16 -11 -31 -16 -34 -5 -4 -9 -17 -9 -29 0 -13 -7 -29 -15 -36 -8
-7 -15 -28 -15 -46 0 -27 -4 -34 -20 -34 -16 0 -20 -7 -20 -34 0 -22 -6 -36
-16 -40 -12 -5 -15 -14 -10 -40 5 -28 3 -36 -19 -50 -16 -11 -25 -26 -25 -44
0 -46 -13 -57 -48 -43 -31 13 -47 47 -36 76 6 16 8 16 16 1 5 -9 16 -16 23
-16 17 0 20 27 6 49 -6 10 -5 24 5 42 13 26 12 28 -16 38 -30 10 -38 28 -21
46 15 17 21 71 8 84 -27 27 -57 7 -57 -40 0 -24 -12 -24 -34 0 -14 15 -15 24
-6 40 6 12 16 21 23 21 7 1 1 10 -13 21 -23 20 -24 22 -9 48 15 25 14 28 -9
45 l-25 19 27 14 c14 7 26 18 26 23 0 6 13 18 30 28 l30 19 -23 20 c-40 36
-157 58 -157 29 0 -7 -6 -19 -14 -25 -13 -11 -28 -98 -27 -152 1 -15 -6 -32
-14 -39 -11 -9 -14 -22 -10 -41 4 -18 -1 -42 -14 -70 -12 -24 -21 -60 -21 -80
0 -35 -2 -38 -30 -37 -20 1 -30 6 -31 17 -4 108 -5 106 19 109 23 4 26 10 15
37 -5 15 -8 14 -19 -6 -13 -24 -13 -24 -14 8 0 17 4 43 10 58 7 20 6 34 -6 57
-11 21 -13 33 -5 41 7 7 7 14 0 23 -14 17 -2 51 22 64 10 6 19 17 19 25 0 34
-92 49 -108 18 -19 -39 -49 -232 -58 -384 -4 -57 -11 -110 -17 -116 -6 -9 -5
-18 3 -28 9 -10 10 -40 3 -112 -4 -54 -7 -135 -6 -179 2 -75 1 -82 -18 -87
-16 -4 -19 -10 -14 -28 7 -23 7 -23 -11 -4 -17 17 -19 37 -20 219 -1 111 3
211 7 223 10 27 2 53 -16 53 -14 0 -26 47 -25 99 0 18 -7 42 -16 52 -9 10 -13
23 -9 28 3 6 3 17 -2 24 -4 6 -8 62 -8 122 l0 110 -65 1 c-39 1 -68 -3 -73
-10 -4 -6 -7 -75 -6 -154 1 -79 -2 -146 -5 -149 -3 -4 -6 -24 -6 -45 0 -21 -3
-38 -6 -38 -14 0 -64 43 -64 55 0 23 20 28 34 10 12 -17 13 -17 19 4 4 17 1
21 -19 21 -27 0 -65 47 -46 59 7 4 9 26 5 63 -5 47 -9 57 -26 60 -29 4 -34 28
-8 35 17 4 21 12 19 32 -2 26 -15 51 -27 51 -28 -1 -35 -23 -36 -120 -1 -55 2
-103 7 -106 15 -9 8 -53 -14 -99 -24 -46 -31 -49 -82 -29 -23 9 -21 -32 2 -45
13 -8 15 -14 6 -28 -6 -10 -9 -24 -7 -30 7 -19 44 -16 59 4 16 22 32 8 17 -15
-5 -9 -23 -17 -40 -18 -16 0 -33 -3 -39 -6 -5 -4 -20 21 -33 55 -13 34 -28 73
-34 87 -6 14 -11 37 -12 51 0 15 -7 34 -15 44 -11 14 -11 18 0 25 10 6 9 15
-8 44 -20 34 -21 66 -1 66 5 0 4 12 -1 26 -6 14 -10 44 -10 67 0 58 -17 83
-26 40 -3 -18 -13 -38 -20 -44 -9 -8 -11 -16 -4 -29 7 -13 3 -22 -15 -38 -21
-18 -25 -31 -25 -76 0 -32 -5 -56 -11 -58 -12 -4 -12 -5 25 -75 19 -37 13 -66
-12 -53 -10 5 -25 11 -34 14 -10 3 -18 14 -18 24 0 10 -7 27 -15 38 -8 10 -15
31 -15 46 0 31 -18 47 -31 27 -13 -22 -11 -83 5 -104 21 -29 -5 -75 -41 -75
-15 0 -18 36 -3 45 16 10 12 19 -19 37 -26 14 -30 23 -33 65 -3 44 -5 48 -33
54 l-30 6 28 7 c28 8 37 26 14 26 -8 0 -22 9 -32 20 -10 11 -26 20 -37 20 -28
0 -26 -15 26 -230 16 -67 22 -108 16 -114 -6 -6 -10 -19 -10 -29 0 -15 -6 -11
-25 17 -14 20 -25 42 -25 47 0 6 -9 22 -20 36 -11 14 -20 32 -20 39 0 25 -61
84 -86 84 -30 0 -31 -14 -3 -26 14 -7 23 -21 25 -44 2 -19 5 -44 6 -55 3 -16
-3 -20 -28 -20 -21 0 -38 -8 -52 -24 -19 -25 -19 -25 -26 -4 -4 12 -13 24 -21
27 -8 3 -15 12 -15 21 0 16 -12 20 -24 8 -12 -13 -95 -30 -107 -22 -16 9 -1
32 17 25 8 -3 22 3 31 14 10 11 25 20 35 20 10 0 18 5 18 10 0 18 -88 11 -129
-11 -55 -29 -66 -43 -45 -63 9 -9 13 -23 10 -32 -3 -8 1 -28 9 -44 8 -16 12
-35 9 -43 -3 -9 2 -16 14 -19 35 -10 38 -119 4 -144 -9 -7 -13 -20 -9 -33 4
-16 1 -21 -15 -21 -11 0 -22 8 -25 18 -2 10 -19 24 -38 31 -18 6 -40 23 -49
36 -29 45 -70 18 -44 -28 18 -32 18 -45 1 -51 -9 -4 -17 1 -20 13 -3 11 -16
27 -29 36 -13 8 -24 24 -24 34 0 20 -19 31 -52 31 -18 0 -20 5 -15 35 3 20 2
33 -3 30 -5 -3 -20 0 -33 6 -21 9 -30 8 -50 -7 -24 -18 -57 -77 -57 -102 0 -6
-8 -19 -18 -29 -37 -36 -52 -153 -21 -153 6 0 7 -4 4 -10 -13 -21 -44 -9 -59
22 -13 26 -14 38 -5 67 6 20 15 40 20 46 5 5 9 17 9 27 0 9 9 37 19 60 40 88
81 197 81 216 0 10 9 27 20 37 14 13 20 31 20 61 0 23 5 55 10 70 10 25 13 26
56 20 33 -4 52 -14 70 -36 21 -24 33 -30 67 -30 46 0 111 19 197 57 84 38 84
38 94 72 12 41 35 56 109 71 l59 12 -7 78 c-9 97 -5 100 133 100 94 0 101 1
136 29 32 25 47 30 129 36 50 4 101 13 112 20 11 7 67 14 130 17 61 3 130 10
155 17 25 6 97 15 160 20 219 19 338 38 363 59 9 8 17 28 17 44 0 41 48 88 91
88 20 0 85 -26 171 -70 77 -39 152 -70 168 -70 16 0 65 -17 108 -39 93 -45
162 -70 180 -64 6 3 12 17 12 33 0 37 22 54 63 47 41 -6 60 4 51 26 -8 21 -20
22 -28 2 -8 -23 -23 -18 -28 10 -4 20 1 30 26 47 17 12 43 34 58 50 15 15 32
28 37 28 15 0 14 -23 -1 -38 -21 -21 2 -13 25 9 15 15 18 23 10 26 -7 3 -13 9
-13 15 0 13 41 47 58 48 6 0 21 9 32 20 11 11 24 20 29 20 4 0 12 -27 15 -61z
m3346 0 c0 -5 -4 -9 -9 -9 -6 0 -22 -11 -37 -25 -15 -14 -36 -25 -47 -25 -18
0 -18 2 4 25 13 13 28 25 32 25 5 0 15 7 24 15 15 15 33 12 33 -6z m200 13 c0
-4 14 -16 30 -25 34 -21 40 -47 10 -47 -11 0 -20 5 -20 10 0 6 -6 10 -14 10
-12 0 -46 40 -46 55 0 3 9 5 20 5 11 0 20 -4 20 -8z m-1870 -63 c0 -6 -4 -7
-10 -4 -5 3 -10 11 -10 16 0 6 5 7 10 4 6 -3 10 -11 10 -16z m1700 -1 c-1 -30
-37 -52 -61 -38 -11 7 -9 10 6 16 11 4 24 13 28 21 10 17 27 17 27 1z m748
-15 c2 -12 10 -27 18 -33 8 -7 14 -28 14 -47 0 -27 -4 -34 -17 -31 -28 5 -81
123 -59 132 22 9 41 0 44 -21z m-898 -13 c0 -5 -5 -10 -11 -10 -5 0 -7 5 -4
10 3 6 8 10 11 10 2 0 4 -4 4 -10z m-25 -30 c-3 -5 -10 -10 -16 -10 -5 0 -9 5
-9 10 0 6 7 10 16 10 8 0 12 -4 9 -10z m-1321 -29 c3 -4 1 -13 -4 -21 -7 -12
-12 -12 -22 -2 -6 6 -25 12 -41 12 -23 0 -27 3 -19 13 11 13 78 12 86 -2z
m1376 -1 c0 -5 -4 -10 -10 -10 -5 0 -10 5 -10 10 0 6 5 10 10 10 6 0 10 -4 10
-10z m-30 -30 c0 -5 -2 -10 -4 -10 -3 0 -8 5 -11 10 -3 6 -1 10 4 10 6 0 11
-4 11 -10z m1459 -31 c28 15 56 14 71 -4 7 -9 21 -13 30 -10 9 3 23 -2 30 -10
12 -14 15 -14 31 1 10 9 23 14 29 12 16 -5 43 -76 41 -108 -7 -155 -28 -238
-66 -270 -8 -7 -15 -20 -16 -29 0 -11 -3 -10 -9 5 -5 13 -21 24 -40 28 -21 4
-34 13 -37 27 -5 19 -7 18 -19 -11 -15 -36 -38 -31 -31 6 3 18 0 24 -14 24 -9
0 -19 -5 -21 -11 -2 -6 -21 1 -47 17 -39 26 -91 107 -91 142 0 7 -4 12 -9 12
-9 0 -27 62 -35 123 -3 24 -1 38 7 39 28 3 74 8 94 9 13 1 28 8 34 16 10 11
14 11 30 -3 13 -12 22 -13 38 -5z m-2034 -19 c3 -5 1 -10 -4 -10 -6 0 -11 5
-11 10 0 6 2 10 4 10 3 0 8 -4 11 -10z m-255 -57 c0 -41 -16 -61 -23 -31 -11
38 -8 58 8 58 10 0 15 -10 15 -27z m90 2 c0 -14 6 -25 13 -26 6 0 2 -5 -11
-11 -33 -16 -50 2 -34 37 15 32 32 32 32 0z m-2625 -5 c3 -5 -1 -10 -10 -10
-9 0 -13 5 -10 10 3 6 8 10 10 10 2 0 7 -4 10 -10z m2848 -35 c1 -6 -10 -11
-25 -13 -26 -3 -38 14 -22 31 8 8 45 -7 47 -18z m-403 -30 c0 -8 -6 -15 -14
-15 -7 0 -19 7 -26 15 -11 13 -8 15 14 15 16 0 26 -5 26 -15z m410 -40 c0 -16
-6 -25 -15 -25 -9 0 -15 9 -15 25 0 16 6 25 15 25 9 0 15 -9 15 -25z m110 15
c0 -5 -9 -10 -20 -10 -11 0 -20 5 -20 10 0 6 9 10 20 10 11 0 20 -4 20 -10z
m-2835 -30 c3 -5 1 -10 -4 -10 -6 0 -11 5 -11 10 0 6 2 10 4 10 3 0 8 -4 11
-10z m2833 -28 c4 -14 -34 -16 -42 -3 -6 10 13 21 28 17 6 -1 12 -8 14 -14z
m-7278 -15 c0 -15 -11 -29 -31 -41 -53 -31 -81 2 -37 44 31 28 68 27 68 -3z
m6290 13 c0 -5 -2 -10 -4 -10 -3 0 -8 5 -11 10 -3 6 -1 10 4 10 6 0 11 -4 11
-10z m910 6 c0 -3 -4 -8 -10 -11 -5 -3 -10 -1 -10 4 0 6 5 11 10 11 6 0 10 -2
10 -4z m-300 -24 c0 -13 -12 -22 -22 -16 -10 6 -1 24 13 24 5 0 9 -4 9 -8z
m-3820 -82 c-9 -17 -60 -30 -60 -16 0 22 17 36 41 36 27 0 29 -2 19 -20z
m3250 -15 c0 -8 -4 -15 -10 -15 -5 0 -10 7 -10 15 0 8 5 15 10 15 6 0 10 -7
10 -15z m470 9 c0 -3 -5 -15 -11 -26 -9 -17 -13 -18 -20 -7 -15 23 -10 39 11
39 11 0 20 -3 20 -6z m-393 -46 c-3 -7 -5 -2 -5 12 0 14 2 19 5 13 2 -7 2 -19
0 -25z m238 13 c3 -5 1 -12 -5 -16 -5 -3 -10 1 -10 9 0 18 6 21 15 7z m-287
-39 c18 -18 18 -19 0 -42 l-18 -22 0 30 c0 19 -7 35 -17 41 -17 10 -17 10 0
11 9 0 25 -8 35 -18z m582 9 c0 -6 -4 -12 -8 -15 -13 -8 -52 5 -46 15 7 12 54
12 54 0z m-87 -25 c6 -16 -11 -36 -30 -36 -16 0 -17 22 -1 38 16 16 25 15 31
-2z m-93 -16 c0 -11 -4 -20 -10 -20 -5 0 -10 9 -10 20 0 11 5 20 10 20 6 0 10
-9 10 -20z m-2652 -32 c-3 -24 -17 -32 -36 -20 -18 12 -4 42 20 42 14 0 19 -6
16 -22z m-1064 -19 c-3 -5 -10 -7 -15 -3 -5 3 -7 10 -3 15 3 5 10 7 15 3 5 -3
7 -10 3 -15z m1180 -24 c11 -8 30 -15 42 -15 12 0 27 -7 34 -15 7 -8 25 -15
41 -15 16 0 29 -4 29 -10 0 -5 30 -18 66 -30 77 -23 90 -36 91 -94 1 -22 -1
-33 -4 -23 -5 20 -23 23 -23 3 0 -8 -16 -24 -35 -36 -21 -13 -35 -30 -35 -42
0 -11 -11 -29 -25 -40 -14 -11 -25 -25 -25 -33 0 -18 -44 -45 -75 -45 -14 0
-25 -4 -25 -10 0 -5 -7 -10 -17 -10 -14 0 -14 2 2 20 27 30 17 34 -63 29 -39
-2 -49 6 -56 45 -8 43 -31 64 -55 49 -10 -7 -22 -9 -25 -6 -10 10 -7 48 5 60
7 7 13 29 14 50 2 22 17 63 34 91 17 29 30 56 30 60 -6 35 39 44 75 17z
m-1687 -1 c-3 -3 -12 -4 -19 -1 -8 3 -5 6 6 6 11 1 17 -2 13 -5z m4107 -19 c9
-24 -3 -43 -25 -38 -22 6 -25 23 -7 41 16 16 25 15 32 -3z m-5878 -12 c18 -25
17 -56 -3 -92 -21 -38 -56 -39 -61 -3 -2 13 -10 26 -18 29 -18 7 -18 12 6 51
22 36 55 42 76 15z m383 -9 c20 -17 31 -35 31 -53 0 -24 -7 -29 -77 -54 -43
-15 -85 -27 -94 -27 -32 0 -59 34 -65 82 -10 75 -7 78 90 78 76 0 87 -3 115
-26z m2935 5 c-3 -5 -10 -7 -15 -3 -5 3 -7 10 -3 15 3 5 10 7 15 3 5 -3 7 -10
3 -15z m-976 -49 c2 -22 -2 -40 -7 -40 -13 0 -25 45 -17 65 10 27 22 15 24
-25z m-2556 -35 c10 -22 9 -28 -10 -41 -12 -8 -19 -21 -16 -28 4 -10 -5 -16
-26 -21 -58 -13 -96 -65 -47 -65 35 0 49 -15 45 -46 -3 -25 -7 -29 -31 -26
-21 2 -39 -6 -68 -33 -30 -27 -45 -34 -62 -29 -63 19 -75 73 -27 119 24 23 30
37 30 72 l0 43 74 0 c77 0 86 5 86 50 0 17 12 27 33 29 4 1 13 -10 19 -24z
m2258 -25 c0 -5 -7 -7 -15 -4 -8 4 -15 8 -15 10 0 2 7 4 15 4 8 0 15 -4 15
-10z m151 -27 c1 -10 3 -35 4 -55 2 -21 0 -40 -6 -43 -5 -4 -9 5 -9 19 0 14
-4 26 -10 26 -5 0 -10 16 -10 35 0 24 5 35 15 35 8 0 15 -8 16 -17z m4585 2
c7 -18 75 -20 103 -3 23 14 53 3 49 -19 -3 -19 25 -30 87 -33 l40 -3 -34 -6
c-53 -9 -49 -28 9 -40 28 -6 61 -11 72 -11 17 0 19 -3 10 -12 -20 -20 -14 -26
38 -33 34 -5 54 -13 60 -26 11 -20 87 -59 117 -59 10 0 24 -4 32 -9 25 -16
-25 -23 -172 -22 -78 0 -158 -3 -177 -6 -76 -13 9 -22 230 -22 190 -1 229 -4
248 -17 13 -9 35 -19 50 -24 25 -6 24 -7 -15 -14 -71 -13 -49 -36 32 -36 50 0
50 0 60 -57 6 -39 5 -43 -19 -49 -14 -3 -34 -21 -45 -39 -15 -25 -28 -35 -53
-38 -32 -4 -31 -4 7 -6 22 -1 48 -8 58 -15 17 -14 17 -15 1 -24 -16 -9 -15
-12 12 -36 22 -20 40 -25 77 -26 30 0 46 -4 42 -10 -8 -14 -149 -13 -196 1
-46 14 -80 5 -58 -15 15 -15 114 -36 165 -36 18 0 37 -6 41 -14 4 -8 19 -16
33 -19 14 -3 3 -3 -25 0 -113 11 -445 14 -445 4 0 -6 -17 -11 -37 -11 -94 0
-160 -9 -188 -24 -16 -9 -49 -16 -73 -16 -24 0 -50 -6 -58 -14 -18 -18 -56 -9
-52 13 2 8 17 20 33 24 17 5 38 13 47 18 10 5 29 9 44 9 14 0 35 5 46 11 17 9
18 13 7 20 -19 12 -126 11 -134 -1 -7 -12 -65 -14 -65 -2 0 17 25 32 55 32 16
0 37 4 45 10 21 13 -28 30 -89 30 -27 0 -63 8 -85 19 -21 11 -43 18 -49 16 -7
-2 -25 -6 -40 -9 -25 -6 -28 -10 -25 -43 2 -27 -1 -38 -12 -40 -18 -4 -36 32
-35 72 0 25 5 31 26 33 15 2 37 14 49 27 24 26 26 24 -25 40 -9 2 -18 -2 -21
-10 -6 -15 -34 -21 -34 -7 0 4 7 18 16 31 13 17 14 25 5 31 -20 11 -41 60 -41
91 0 22 5 29 20 29 11 0 23 7 26 15 4 9 19 15 35 15 32 0 39 19 10 27 -16 4
-19 12 -16 46 2 23 8 43 14 45 8 3 8 9 0 24 -13 25 -4 52 16 44 11 -4 15 1 15
19 0 13 5 27 10 30 6 3 10 17 10 31 0 27 24 33 34 9 6 -17 36 -21 36 -4 0 6
-9 13 -20 16 -13 3 -20 14 -20 29 0 27 3 29 30 12 24 -15 37 -4 20 18 -12 13
-11 17 1 25 20 13 29 11 35 -6z m-3520 -70 c2 -57 -10 -81 -21 -45 -3 11 -11
20 -17 20 -6 0 0 8 13 19 22 18 22 20 7 44 -10 13 -14 28 -11 31 14 14 27 -18
29 -69z m3774 65 c0 -5 -11 -10 -25 -10 -14 0 -25 5 -25 10 0 6 11 10 25 10
14 0 25 -4 25 -10z m-5680 -21 c0 -11 -4 -17 -10 -14 -5 3 -10 13 -10 21 0 8
5 14 10 14 6 0 10 -9 10 -21z m-277 -6 c-7 -2 -19 -2 -25 0 -7 3 -2 5 12 5 14
0 19 -2 13 -5z m567 -19 c0 -14 -4 -23 -10 -19 -5 3 -10 15 -10 26 0 10 5 19
10 19 6 0 10 -12 10 -26z m2260 17 c0 -5 -6 -13 -13 -19 -10 -8 -13 -6 -14 9
-1 10 5 19 13 19 8 0 14 -4 14 -9z m-2610 -24 c0 -7 -9 -18 -20 -25 -17 -11
-20 -10 -20 7 0 17 11 28 33 30 4 1 7 -5 7 -12z m-127 -4 c-7 -2 -19 -2 -25 0
-7 3 -2 5 12 5 14 0 19 -2 13 -5z m2603 -7 c1 0 4 -13 8 -28 5 -20 3 -28 -7
-28 -12 0 -19 10 -45 64 -3 6 38 -1 44 -8z m-2568 -29 c2 -10 -3 -17 -12 -17
-10 0 -16 9 -16 21 0 24 23 21 28 -4z m1472 9 c0 -8 -4 -17 -9 -20 -4 -3 -11
-22 -14 -42 -3 -20 -14 -42 -24 -49 -17 -13 -17 -15 -1 -27 25 -20 32 -72 13
-92 -9 -9 -22 -16 -30 -16 -14 0 -41 -57 -31 -67 3 -3 6 1 6 10 0 9 4 18 8 21
5 3 7 -13 5 -34 -1 -21 2 -42 7 -45 6 -3 10 -18 10 -32 0 -25 -1 -25 -19 -9
-11 10 -25 15 -30 11 -8 -4 -11 22 -11 79 0 51 4 86 10 86 6 0 10 28 10 64 0
54 4 69 25 94 14 17 25 39 25 49 0 11 3 23 7 26 12 13 43 7 43 -7z m1190 -25
c0 -5 -11 -16 -24 -24 -22 -15 -25 -15 -30 -1 -3 9 -4 20 0 25 7 12 54 12 54
0z m-510 -31 c0 -23 -29 -35 -36 -15 -7 18 14 47 27 39 5 -3 9 -13 9 -24z
m-1960 0 c0 -5 -4 -10 -10 -10 -5 0 -10 5 -10 10 0 6 5 10 10 10 6 0 10 -4 10
-10z m2303 -3 c7 -19 -8 -41 -22 -33 -16 10 -14 46 3 46 8 0 16 -6 19 -13z
m-795 -68 c-21 -14 -28 -10 -28 15 0 30 33 41 38 12 2 -10 -2 -23 -10 -27z
m372 41 c12 -8 11 -10 -7 -10 -13 0 -23 5 -23 10 0 13 11 13 30 0z m540 1 c0
-5 -9 -12 -19 -16 -10 -3 -21 -15 -24 -27 -5 -18 -8 -19 -21 -8 -17 13 -22 50
-7 50 5 0 12 -6 15 -12 3 -9 8 -8 16 5 12 18 40 24 40 8z m-477 -26 c-3 -13
-53 -20 -53 -7 0 15 13 23 35 20 11 -2 19 -7 18 -13z m-1146 -37 c-3 -7 -5 -2
-5 12 0 14 2 19 5 13 2 -7 2 -19 0 -25z m2180 -76 c64 -46 146 -114 161 -134
7 -10 19 -18 27 -18 8 0 20 -8 27 -18 7 -10 29 -29 48 -42 50 -34 59 -49 47
-74 -12 -24 -99 -98 -143 -121 -33 -17 -120 -20 -129 -5 -3 6 -15 10 -25 10
-10 0 -25 6 -32 14 -8 7 -28 21 -46 30 -17 9 -39 30 -47 46 -8 16 -24 34 -35
40 -11 6 -20 18 -20 26 0 24 -50 84 -70 84 -31 0 -49 11 -43 26 3 8 1 20 -5
27 -6 6 -12 20 -14 29 -3 17 54 92 101 133 12 11 30 27 38 37 15 15 20 13 65
-20 27 -21 70 -52 95 -70z m-1092 88 c3 -5 1 -10 -4 -10 -6 0 -11 5 -11 10 0
6 2 10 4 10 3 0 8 -4 11 -10z m177 -32 c-7 -7 -12 -8 -12 -2 0 6 3 14 7 17 3
4 9 5 12 2 2 -3 -1 -11 -7 -17z m-568 3 c3 -5 -1 -12 -10 -15 -20 -8 -29 -1
-19 13 8 13 22 14 29 2z m91 -20 c3 -16 1 -39 -4 -50 -6 -12 -16 -30 -21 -41
-6 -12 -8 -25 -5 -30 10 -17 -5 -48 -25 -53 -11 -3 -23 -1 -26 4 -3 5 -1 9 4
9 6 0 15 13 20 29 9 26 7 30 -15 40 -32 15 -24 36 13 36 26 0 29 3 26 29 -6
56 21 79 33 27z m753 12 c5 -17 -26 -29 -40 -15 -6 6 -7 15 -3 22 9 14 37 9
43 -7z m5437 11 c14 -6 14 -8 -1 -25 -29 -32 -74 -20 -60 16 6 16 33 19 61 9z
m-5770 -34 c3 -5 1 -10 -4 -10 -6 0 -11 5 -11 10 0 6 2 10 4 10 3 0 8 -4 11
-10z m-2245 -10 c0 -5 -2 -10 -4 -10 -3 0 -8 5 -11 10 -3 6 -1 10 4 10 6 0 11
-4 11 -10z m2554 -19 c7 -11 -22 -23 -35 -15 -5 3 -7 10 -4 15 8 12 32 12 39
0z m132 -2 c3 -6 0 -15 -7 -20 -14 -9 -59 -13 -59 -5 0 2 -3 11 -6 20 -5 13 1
16 29 16 20 0 39 -5 43 -11z m-1826 -29 c0 -5 -7 -10 -16 -10 -8 0 -12 5 -9
10 3 6 10 10 16 10 5 0 9 -4 9 -10z m4555 0 c3 -5 -1 -10 -10 -10 -9 0 -13 5
-10 10 3 6 8 10 10 10 2 0 7 -4 10 -10z m-2857 -36 c45 -18 52 -39 11 -39 -17
0 -25 -7 -27 -22 -2 -15 -8 -20 -18 -16 -9 3 -14 0 -12 -7 4 -16 -13 -22 -32
-10 -12 7 -12 12 4 29 10 11 27 23 37 26 28 9 24 35 -6 35 -14 0 -25 5 -25 10
0 14 18 12 68 -6z m-2098 -20 c0 -9 -7 -14 -17 -12 -25 5 -28 28 -4 28 12 0
21 -6 21 -16z m489 -11 c0 -25 -1 -25 -8 -8 -5 11 -7 23 -4 28 8 14 13 7 12
-20z m1481 8 c0 -12 -29 -35 -36 -28 -11 10 5 37 21 37 8 0 15 -4 15 -9z
m-1560 -31 c0 -5 -4 -10 -10 -10 -5 0 -10 5 -10 10 0 6 5 10 10 10 6 0 10 -4
10 -10z m226 -14 c7 -28 -2 -49 -17 -41 -12 8 -12 65 1 65 5 0 12 -11 16 -24z
m-196 -73 c0 -18 -4 -33 -10 -33 -5 0 -10 21 -10 48 0 34 3 43 10 32 5 -8 10
-30 10 -47z m2006 32 c-3 -9 -11 -13 -16 -10 -8 5 -7 11 1 21 14 18 24 11 15
-11z m-1135 2 c-1 -12 -15 -9 -19 4 -3 6 1 10 8 8 6 -3 11 -8 11 -12z m589 -7
c0 -5 -7 -10 -15 -10 -8 0 -15 5 -15 10 0 6 7 10 15 10 8 0 15 -4 15 -10z
m440 0 c0 -5 -4 -10 -10 -10 -5 0 -10 5 -10 10 0 6 5 10 10 10 6 0 10 -4 10
-10z m-280 -9 c0 -5 -6 -14 -14 -20 -11 -9 -16 -9 -21 0 -4 6 -1 15 6 20 18
11 29 11 29 0z m-780 -16 c0 -8 5 -15 10 -15 13 0 13 -27 -1 -36 -14 -8 -26 5
-34 39 -6 21 -4 27 9 27 9 0 16 -7 16 -15z m1260 -10 c0 -8 -4 -15 -10 -15 -5
0 -10 7 -10 15 0 8 5 15 10 15 6 0 10 -7 10 -15z m3498 -17 c-3 -7 -17 -13
-33 -13 -16 0 -30 6 -32 13 -3 8 7 12 32 12 25 0 35 -4 33 -12z m-5080 -57 c3
-28 1 -33 -13 -27 -9 3 -21 6 -26 6 -11 0 -12 43 -2 54 17 16 38 -1 41 -33z
m-2368 -1 c0 -5 -5 -10 -11 -10 -5 0 -7 5 -4 10 3 6 8 10 11 10 2 0 4 -4 4
-10z m2240 -26 c0 -17 -4 -22 -15 -18 -8 4 -15 17 -15 30 0 17 4 22 15 18 8
-4 15 -17 15 -30z m1130 30 c0 -9 -24 -30 -42 -37 -10 -3 -18 -13 -18 -22 0
-8 -4 -15 -10 -15 -16 0 -12 19 11 51 17 25 59 41 59 23z m4090 -4 c0 -5 12
-16 28 -24 l27 -15 -25 0 c-28 0 -60 20 -60 38 0 6 7 11 15 11 8 0 15 -4 15
-10z m-4310 -31 c0 -5 -4 -9 -10 -9 -5 0 -10 7 -10 16 0 8 5 12 10 9 6 -3 10
-10 10 -16z m1377 -5 c-3 -3 -12 -4 -19 -1 -8 3 -5 6 6 6 11 1 17 -2 13 -5z
m-1497 -19 c0 -8 -7 -15 -15 -15 -9 0 -18 -7 -21 -15 -4 -8 -15 -15 -25 -15
-13 0 -19 -7 -19 -24 0 -13 -7 -29 -15 -36 -12 -10 -15 -9 -15 7 0 10 -5 24
-11 30 -8 8 -5 13 10 18 12 3 21 11 21 16 0 5 9 9 21 9 12 0 23 8 26 20 6 23
43 27 43 5z m-2650 -5 c8 -5 11 -12 7 -16 -4 -4 -15 0 -24 9 -18 18 -8 23 17
7z m-377 -15 c-3 -9 2 -24 11 -34 12 -13 14 -21 7 -26 -16 -9 -13 -28 3 -22 8
3 20 -1 28 -10 11 -14 8 -15 -29 -9 -44 8 -63 -5 -44 -28 15 -18 72 -27 89
-14 8 7 17 6 28 -2 13 -11 19 -10 37 8 l21 22 -22 0 c-23 0 -30 14 -12 25 15
9 12 25 -4 25 -11 0 -46 40 -46 53 0 2 13 4 29 4 23 0 30 -6 41 -36 25 -72 47
-80 42 -16 -4 42 -2 45 21 45 28 0 54 -24 37 -35 -17 -11 -11 -27 8 -21 10 4
27 -1 38 -9 10 -8 22 -15 27 -15 12 0 8 35 -5 49 -11 11 -6 12 24 7 29 -5 39
-3 47 11 11 21 60 25 79 7 6 -7 12 -22 12 -34 0 -20 1 -20 22 -6 27 19 38 20
38 4 0 -6 34 -46 76 -87 122 -123 150 -153 191 -211 55 -77 57 -87 25 -107
-64 -42 -173 -149 -224 -222 -17 -24 -42 -73 -55 -110 -34 -93 -26 -141 43
-246 18 -28 61 -46 129 -54 50 -6 50 -6 49 -41 -1 -19 -8 -61 -18 -93 -9 -32
-16 -77 -16 -100 0 -82 63 -162 172 -218 48 -24 67 -28 120 -26 l63 2 6 -85
c8 -109 39 -190 88 -229 62 -49 82 -55 169 -56 l84 0 26 -37 c69 -94 242 -137
328 -81 19 12 38 14 83 10 54 -6 81 -2 188 29 15 4 27 -1 40 -16 10 -11 30
-33 44 -48 54 -56 52 -37 55 -627 3 -559 12 -779 39 -940 38 -220 59 -323 76
-370 32 -85 27 -106 -32 -145 -47 -30 -54 -32 -83 -22 -18 7 -39 12 -48 12 -8
0 -26 8 -39 19 -13 10 -39 22 -58 26 -19 4 -67 22 -107 41 -39 18 -95 41 -124
50 -30 10 -62 26 -72 36 -10 10 -26 18 -36 18 -11 0 -27 9 -37 20 -10 11 -27
20 -37 20 -10 0 -21 6 -24 14 -3 8 -12 12 -20 9 -7 -3 -37 11 -66 30 -29 19
-71 44 -94 55 -22 11 -46 28 -53 36 -8 9 -21 16 -30 16 -24 0 -94 39 -109 61
-7 11 -21 19 -31 19 -10 0 -29 9 -42 20 -12 12 -37 30 -55 41 -18 10 -39 30
-48 43 -8 13 -29 27 -45 31 -16 3 -36 17 -45 29 -8 13 -36 34 -61 46 -26 13
-64 40 -85 61 -20 21 -49 41 -64 45 -14 3 -26 11 -26 18 0 13 -53 66 -92 90
-15 10 -30 26 -33 37 -4 10 -15 19 -25 19 -21 0 -177 152 -182 178 -2 10 -12
16 -24 15 -13 -1 -38 19 -74 59 -30 33 -74 79 -97 101 -24 22 -43 43 -43 46 0
4 -35 43 -77 88 -109 114 -126 134 -140 166 -7 15 -16 27 -22 27 -13 0 -66 80
-74 112 -4 14 -18 33 -32 42 -14 9 -25 23 -25 31 0 8 -9 19 -19 25 -11 5 -23
20 -26 32 -4 13 -18 34 -30 48 -13 14 -25 34 -27 45 -2 11 -12 24 -23 29 -11
5 -40 45 -65 88 -25 44 -55 91 -67 105 -12 14 -25 35 -29 47 -4 11 -16 34 -28
51 -11 16 -33 56 -49 90 -16 33 -34 67 -41 75 -8 8 -23 42 -34 75 -27 79 -43
115 -53 115 -9 0 -59 147 -59 175 0 11 -7 29 -15 39 -8 11 -15 27 -15 36 0 8
-11 32 -25 52 -14 20 -25 50 -25 67 0 16 -5 42 -10 57 -6 15 -12 62 -13 103
-2 73 -1 76 21 74 40 -5 19 37 -26 51 -18 6 -22 14 -20 41 2 30 5 34 25 29 20
-5 23 -2 23 20 0 17 -5 26 -16 26 -14 0 -14 3 -4 15 11 13 14 13 26 -2 12 -16
13 -16 14 9 0 15 8 32 18 37 15 9 15 10 -5 11 -15 0 -23 -6 -23 -16 0 -13 -7
-15 -43 -9 -51 9 -53 11 -38 29 9 10 9 21 3 32 -11 19 -4 54 10 54 6 0 7 11 4
24 -5 19 0 28 22 42 15 10 37 18 49 19 27 1 56 24 33 26 -8 1 -22 2 -30 3 -28
2 -16 31 15 36 21 4 31 12 33 27 4 25 41 38 49 17 8 -21 23 -17 55 16 28 30
31 54 4 44 -17 -7 -38 20 -30 39 6 18 25 13 66 -16 25 -18 28 -18 58 -3 36 18
50 14 50 -14 0 -10 4 -21 9 -25 15 -8 26 64 12 78 -16 16 -14 23 9 24 11 1 20
-2 20 -8 0 -5 14 -9 30 -9 24 0 30 5 32 23 2 41 3 46 11 54 5 4 11 2 16 -5 4
-6 18 -12 32 -11 79 1 105 -3 115 -16 15 -21 24 -19 24 5 0 11 -7 20 -15 20
-8 0 -15 5 -15 11 0 6 -14 24 -30 39 l-31 29 23 15 c22 16 23 15 31 -9 11 -32
61 -35 77 -5 6 12 21 20 35 20 29 0 31 -7 9 -31 -15 -17 -15 -18 9 -24 32 -8
72 11 58 29 -13 15 -7 44 21 103 6 12 8 29 5 37 -5 11 0 16 13 16 13 0 18 -5
13 -15z m2634 -27 c-3 -8 -6 -5 -6 6 -1 11 2 17 5 13 3 -3 4 -12 1 -19z m-400
-10 c-3 -8 -6 -5 -6 6 -1 11 2 17 5 13 3 -3 4 -12 1 -19z m-707 -9 c0 -5 -4
-9 -10 -9 -5 0 -10 7 -10 16 0 8 5 12 10 9 6 -3 10 -10 10 -16z m797 -11 c-3
-7 -5 -2 -5 12 0 14 2 19 5 13 2 -7 2 -19 0 -25z m4213 22 c0 -6 -7 -13 -15
-16 -20 -8 -48 3 -40 16 8 13 55 13 55 0z m-6615 -10 c-28 -12 -47 -12 -40 0
3 6 18 10 33 9 24 0 25 -1 7 -9z m1785 0 c0 -5 -4 -10 -9 -10 -6 0 -13 5 -16
10 -3 6 1 10 9 10 9 0 16 -4 16 -10z m1540 -5 c-7 -9 -15 -13 -17 -11 -7 7 7
26 19 26 6 0 6 -6 -2 -15z m-610 -10 c0 -8 -4 -15 -10 -15 -5 0 -7 7 -4 15 4
8 8 15 10 15 2 0 4 -7 4 -15z m-262 -31 c-14 -14 -15 -14 -10 11 3 19 8 23 15
16 8 -8 7 -16 -5 -27z m4086 27 c3 -5 -1 -11 -9 -15 -15 -6 -29 7 -18 18 9 9
21 8 27 -3z m-2311 -21 c3 -13 0 -20 -9 -20 -8 0 -14 2 -14 4 0 2 -3 11 -6 20
-4 10 -1 16 9 16 8 0 17 -9 20 -20z m-4321 -12 c-6 -6 -15 -8 -19 -4 -4 4 -1
11 7 16 19 12 27 3 12 -12z m2502 6 c3 -8 2 -12 -4 -9 -6 3 -10 10 -10 16 0
14 7 11 14 -7z m1881 0 c14 -6 13 -8 -5 -21 -24 -17 -35 -12 -27 12 7 17 9 17
32 9z m2178 0 c11 -11 -3 -24 -18 -18 -8 4 -12 10 -9 15 6 11 18 12 27 3z
m-4853 -32 c0 -15 -2 -15 -10 -2 -13 20 -13 33 0 25 6 -3 10 -14 10 -23z
m6700 19 c0 -6 -4 -13 -10 -16 -5 -3 -10 1 -10 9 0 9 5 16 10 16 6 0 10 -4 10
-9z m-6010 -21 c0 -5 -2 -10 -4 -10 -3 0 -8 5 -11 10 -3 6 -1 10 4 10 6 0 11
-4 11 -10z m1900 0 c0 -5 -10 -10 -22 -10 -19 0 -20 2 -8 10 19 13 30 13 30 0z
m2964 1 c16 -25 -8 -39 -80 -46 -40 -4 -76 -10 -79 -15 -2 -4 -36 -10 -75 -14
-38 -4 -72 -11 -75 -17 -6 -9 -65 -13 -65 -5 0 2 -2 10 -5 18 -4 9 5 14 29 15
19 1 45 8 58 16 13 8 63 18 113 22 62 4 92 11 98 21 9 15 72 19 81 5z m274
-18 c19 -8 32 -17 30 -19 -7 -6 -180 -12 -200 -6 -25 6 -22 31 5 42 29 11 123
2 165 -17z m-4521 -5 c-3 -8 -6 -5 -6 6 -1 11 2 17 5 13 3 -3 4 -12 1 -19z
m5388 -26 c0 -26 2 -27 50 -24 27 2 55 8 62 14 17 13 39 0 24 -15 -17 -17 -13
-27 10 -27 26 0 80 -29 97 -53 13 -17 15 -17 26 -1 9 12 15 14 20 5 4 -6 12
-9 17 -6 5 4 9 1 9 -6 0 -6 8 -18 18 -25 16 -13 16 -15 -3 -29 -11 -9 -25 -13
-32 -11 -7 3 -13 1 -13 -3 0 -5 17 -13 37 -18 24 -6 39 -15 41 -27 3 -13 0
-16 -9 -11 -7 5 -10 4 -5 -3 3 -6 -3 -13 -14 -17 -11 -4 -18 -11 -15 -16 9
-14 35 -11 35 4 0 8 9 22 21 33 17 15 22 16 29 4 6 -10 4 -17 -5 -23 -17 -9
-20 -53 -4 -62 6 -4 13 2 16 14 7 25 62 31 64 6 1 -8 2 -21 3 -27 1 -13 15
-14 46 -7 9 2 14 -2 12 -10 -2 -7 5 -22 14 -32 15 -17 15 -20 1 -43 -15 -22
-15 -25 0 -30 9 -4 21 -2 27 4 15 15 26 12 26 -9 0 -14 6 -17 25 -14 13 3 30
11 36 19 20 24 29 16 29 -26 0 -43 23 -57 35 -21 3 10 14 26 24 35 16 15 22
15 43 4 12 -7 26 -17 29 -21 4 -5 9 3 13 17 3 14 10 26 15 26 16 0 21 -30 8
-51 -11 -19 -7 -26 38 -67 81 -75 94 -131 50 -218 -14 -27 -27 -65 -31 -84 -7
-45 -46 -150 -56 -150 -5 0 -8 -9 -8 -20 0 -30 -21 -69 -41 -75 -14 -5 -59 0
-99 10 -23 6 -40 19 -40 31 0 8 -7 14 -15 14 -22 0 -18 -17 5 -30 11 -6 18
-15 15 -20 -3 -5 14 -27 39 -50 61 -56 73 -88 56 -154 -10 -41 -70 -175 -108
-246 -5 -8 -22 -42 -38 -74 -71 -146 -281 -483 -332 -534 -12 -12 -22 -28 -22
-36 0 -8 -8 -21 -18 -28 -10 -7 -40 -42 -66 -78 -26 -36 -66 -87 -89 -114 -60
-70 -128 -149 -156 -182 -13 -16 -28 -39 -34 -51 -6 -13 -15 -23 -20 -23 -6 0
-83 -73 -172 -163 -163 -164 -261 -254 -325 -297 -19 -14 -41 -31 -49 -38 -8
-8 -38 -32 -68 -54 -29 -22 -53 -44 -53 -49 0 -5 -16 -16 -36 -24 -21 -8 -49
-27 -63 -41 -14 -14 -42 -34 -62 -45 -20 -10 -39 -25 -42 -33 -4 -9 -21 -22
-39 -31 -50 -24 -119 -66 -174 -106 -83 -61 -174 -92 -174 -59 0 4 -13 10 -30
14 -16 3 -30 10 -30 15 0 9 39 63 157 214 18 23 47 65 64 92 32 52 100 149
157 226 18 24 41 60 49 79 9 19 24 44 34 55 10 11 35 52 56 91 21 39 53 98 72
130 77 132 271 510 271 527 0 7 15 44 34 82 55 113 101 231 151 385 26 80 51
152 55 160 4 8 19 58 34 110 15 52 31 104 36 115 15 38 50 173 50 197 0 14 7
47 15 75 43 146 93 492 121 843 3 40 11 69 20 76 7 6 14 24 13 40 0 25 -2 26
-9 9 -8 -19 -9 -19 -9 3 -1 12 3 22 7 22 5 0 14 18 21 41 13 44 25 45 26 1z
m-8660 18 c3 -5 1 -10 -4 -10 -6 0 -11 5 -11 10 0 6 2 10 4 10 3 0 8 -4 11
-10z m3035 -6 c0 -8 -5 -12 -10 -9 -6 4 -8 11 -5 16 9 14 15 11 15 -7z m4960
6 c0 -5 -4 -10 -10 -10 -5 0 -10 5 -10 10 0 6 5 10 10 10 6 0 10 -4 10 -10z
m724 -5 c-4 -8 -10 -12 -15 -9 -11 6 -2 24 11 24 5 0 7 -7 4 -15z m-8644 -17
c0 -19 -2 -20 -10 -8 -13 19 -13 30 0 30 6 0 10 -10 10 -22z m7813 15 c-7 -2
-19 -2 -25 0 -7 3 -2 5 12 5 14 0 19 -2 13 -5z m-4663 -54 c0 -5 -4 -9 -10 -9
-5 0 -10 7 -10 16 0 8 5 12 10 9 6 -3 10 -10 10 -16z m2121 3 c14 -6 13 -11
-11 -32 l-27 -25 -1 33 c-1 32 7 37 39 24z m2209 -2 c0 -5 -10 -16 -22 -23
-26 -16 -178 -23 -178 -8 0 10 74 27 106 23 12 -1 32 2 45 7 32 13 49 13 49 1z
m214 2 c6 -11 -109 -46 -123 -38 -5 3 -7 15 -4 26 5 17 14 20 64 20 32 0 60
-4 63 -8z m-5104 -24 c0 -18 -2 -20 -9 -8 -6 8 -7 18 -5 22 9 14 14 9 14 -14z
m4425 -8 c-5 -8 -11 -8 -17 -2 -6 6 -7 16 -3 22 5 8 11 8 17 2 6 -6 7 -16 3
-22z m-7101 5 c-4 -8 -10 -15 -15 -15 -4 0 -6 7 -3 15 4 8 10 15 15 15 4 0 6
-7 3 -15z m7300 -4 c7 -10 -22 -37 -30 -28 -9 8 3 37 15 37 5 0 12 -4 15 -9z
m2296 -32 c34 -23 64 -48 67 -55 3 -8 10 -14 15 -14 17 0 58 -44 58 -63 0 -16
-4 -15 -33 7 -19 15 -39 26 -45 26 -7 0 -25 14 -40 30 -16 17 -37 30 -47 30
-27 0 -55 29 -55 57 0 12 4 23 9 23 5 0 37 -19 71 -41z m-6102 -1 c-4 -27 -28
-36 -28 -10 0 20 8 32 22 32 5 0 8 -10 6 -22z m1787 4 c0 -18 -20 -15 -23 4
-3 10 1 15 10 12 7 -3 13 -10 13 -16z m1945 -2 c0 -5 -11 -10 -25 -10 -14 0
-25 5 -25 10 0 6 11 10 25 10 14 0 25 -4 25 -10z m1822 -12 c-9 -9 -15 -9 -24
0 -9 9 -7 12 12 12 19 0 21 -3 12 -12z m-3832 -19 c0 -5 -4 -9 -10 -9 -5 0
-10 7 -10 16 0 8 5 12 10 9 6 -3 10 -10 10 -16z m2380 12 c0 -5 -22 -11 -50
-15 -27 -4 -52 -11 -55 -16 -3 -6 -42 -10 -86 -10 -51 0 -78 4 -74 10 3 6 19
10 34 10 15 0 31 4 37 9 5 6 41 12 79 14 39 1 80 4 93 5 12 1 22 -2 22 -7z
m192 -1 c36 0 57 -4 53 -10 -6 -10 -199 -11 -225 -1 -21 8 47 20 84 15 16 -2
55 -4 88 -4z m-7922 -10 c0 -5 -5 -10 -11 -10 -5 0 -7 5 -4 10 3 6 8 10 11 10
2 0 4 -4 4 -10z m7283 -1 c-8 -8 -16 -8 -30 0 -16 9 -14 10 12 11 21 0 26 -3
18 -11z m935 -26 c4 -14 -34 -18 -63 -7 -13 6 -14 9 -3 15 18 12 61 7 66 -8z
m-8418 -43 c0 -10 -5 -22 -10 -25 -13 -8 -24 20 -16 41 8 20 26 9 26 -16z
m3745 19 c10 -15 -1 -23 -20 -15 -9 3 -13 10 -10 16 8 13 22 13 30 -1z m3870
1 c4 -6 -10 -10 -35 -10 -25 0 -39 4 -35 10 3 6 19 10 35 10 16 0 32 -4 35
-10z m533 0 c65 0 30 -17 -50 -24 -81 -7 -108 0 -93 24 5 9 24 11 59 6 28 -3
66 -6 84 -6z m-238 -8 c0 -21 -29 -32 -84 -32 -34 -1 -72 -7 -86 -15 -27 -16
-70 -20 -70 -7 0 22 29 32 92 32 46 0 71 5 80 15 14 15 68 21 68 7z m1560 -26
c0 -8 -4 -18 -10 -21 -5 -3 -10 3 -10 14 0 12 5 21 10 21 6 0 10 -6 10 -14z
m-4640 -21 c0 -8 -7 -15 -15 -15 -16 0 -20 12 -8 23 11 12 23 8 23 -8z m-1145
-18 c0 -26 -20 -25 -23 2 -3 16 1 22 10 19 7 -3 13 -12 13 -21z m4714 7 c2 -2
-25 -4 -60 -4 -44 0 -59 3 -49 10 14 9 99 4 109 -6z m1162 -16 c16 -18 29 -36
29 -41 0 -9 -82 3 -94 14 -9 8 18 59 30 59 4 0 19 -15 35 -32z m-9664 -10 c-3
-8 -6 -5 -6 6 -1 11 2 17 5 13 3 -3 4 -12 1 -19z m7968 2 c7 -11 -41 -44 -54
-36 -5 3 -7 15 -4 26 6 21 47 28 58 10z m75 0 c0 -5 -4 -10 -10 -10 -5 0 -10
5 -10 10 0 6 5 10 10 10 6 0 10 -4 10 -10z m225 0 c3 -5 -1 -10 -9 -10 -9 0
-16 5 -16 10 0 6 4 10 9 10 6 0 13 -4 16 -10z m-3450 -30 c-3 -5 -13 -10 -21
-10 -8 0 -12 5 -9 10 3 6 13 10 21 10 8 0 12 -4 9 -10z m132 -37 c-9 -9 -19
-14 -23 -11 -10 10 6 28 24 28 15 0 15 -1 -1 -17z m3090 11 c-3 -3 -12 -4 -19
-1 -8 3 -5 6 6 6 11 1 17 -2 13 -5z m196 -1 c-7 -2 -21 -2 -30 0 -10 3 -4 5
12 5 17 0 24 -2 18 -5z m274 1 c-3 -3 -12 -4 -19 -1 -8 3 -5 6 6 6 11 1 17 -2
13 -5z m-3602 -34 c-3 -5 -15 -10 -26 -10 -10 0 -19 5 -19 10 0 6 12 10 26 10
14 0 23 -4 19 -10z m5075 -29 c0 -5 -7 -11 -15 -15 -9 -3 -15 0 -15 9 0 8 7
15 15 15 8 0 15 -4 15 -9z m-5157 -16 c7 -18 -9 -29 -30 -21 -12 5 -13 9 -3
21 16 19 26 19 33 0z m3564 -1 c31 -8 19 -24 -18 -24 -19 0 -29 5 -29 15 0 16
12 18 47 9z m-2902 -14 c-3 -5 -26 -10 -51 -10 -24 0 -44 5 -44 10 0 6 23 10
51 10 31 0 48 -4 44 -10z m2875 -55 c-5 -11 -53 -14 -83 -7 -31 8 1 20 47 19
24 -1 39 -6 36 -12z m-145 -24 c-8 -14 -61 -24 -85 -16 -34 11 -11 25 41 25
28 0 48 -4 44 -9z m210 -1 c3 -5 2 -10 -4 -10 -5 0 -13 5 -16 10 -3 6 -2 10 4
10 5 0 13 -4 16 -10z m-3835 -30 c0 -5 -4 -10 -10 -10 -5 0 -10 5 -10 10 0 6
5 10 10 10 6 0 10 -4 10 -10z m3557 -86 c-3 -3 -12 -4 -19 -1 -8 3 -5 6 6 6
11 1 17 -2 13 -5z m-92 -78 c23 4 35 2 41 -9 11 -18 47 -37 70 -37 32 0 101
-40 112 -66 15 -31 16 -81 2 -89 -5 -3 -10 -16 -10 -28 0 -24 -65 -91 -98
-101 -11 -4 -37 -22 -58 -41 -21 -19 -44 -35 -51 -35 -7 0 -30 -15 -50 -34
-21 -18 -54 -37 -73 -41 -19 -4 -39 -11 -45 -15 -5 -4 -41 -19 -80 -34 -38
-15 -91 -41 -117 -58 -26 -16 -69 -36 -95 -43 -26 -7 -74 -25 -106 -40 -32
-15 -72 -29 -90 -32 -18 -3 -41 -13 -53 -24 -11 -11 -35 -19 -55 -19 -19 0
-52 -12 -74 -25 -22 -14 -49 -25 -60 -25 -11 0 -38 -9 -59 -21 -23 -12 -51
-19 -68 -17 -15 3 -28 1 -28 -4 0 -4 -17 -8 -39 -8 -22 0 -44 -6 -51 -15 -7
-8 -25 -15 -39 -15 -24 0 -54 -8 -190 -51 -19 -6 -52 -11 -74 -11 -22 1 -52
-5 -67 -13 -15 -8 -60 -16 -101 -19 -41 -3 -96 -10 -124 -16 -27 -6 -56 -8
-64 -5 -8 3 -22 -2 -32 -11 -19 -18 -24 -11 -19 25 1 7 -1 24 -4 37 -8 29 -40
32 -68 7 -23 -21 -23 -34 2 -61 16 -17 17 -22 6 -22 -8 0 -17 4 -20 9 -3 5
-20 11 -38 14 -18 3 -43 8 -56 12 -16 5 -22 4 -20 -5 3 -15 -41 -42 -54 -34
-4 3 -8 14 -8 24 0 12 -9 22 -25 26 -13 3 -27 16 -31 27 -8 26 -149 183 -172
192 -32 12 -54 -28 -57 -104 -2 -38 -7 -75 -11 -82 -11 -18 -25 14 -29 69 -2
26 -6 54 -9 62 -24 62 -33 98 -28 107 13 19 54 22 79 6 19 -13 29 -14 46 -5
12 7 47 11 77 9 30 -1 73 4 96 12 37 12 44 11 70 -5 26 -18 104 -28 104 -14 0
3 16 6 36 7 19 1 38 4 41 7 9 9 -39 46 -69 52 -15 4 -25 10 -22 15 7 13 62 11
70 -2 3 -6 16 -8 29 -5 14 4 28 0 36 -10 12 -14 14 -14 21 5 4 12 15 21 24 21
10 0 14 -5 11 -15 -9 -21 14 -31 28 -12 7 10 16 13 25 7 9 -5 20 -5 27 2 7 6
29 8 47 5 25 -4 36 -1 40 9 3 8 19 14 35 14 16 0 33 5 36 10 3 6 16 10 28 10
12 0 42 11 67 25 42 22 58 31 117 58 16 7 26 7 36 -1 11 -9 18 -8 31 6 21 24
12 32 -40 32 -41 0 -115 -26 -122 -42 -2 -5 -18 -8 -36 -8 -18 0 -38 -6 -44
-12 -10 -10 -15 -10 -22 2 -8 12 -2 16 30 18 22 2 40 8 40 15 1 15 74 50 193
92 46 16 49 16 62 -1 13 -16 16 -17 24 -4 7 9 6 19 -1 27 -16 19 -5 25 26 14
30 -12 33 -26 9 -39 -10 -6 -14 -16 -10 -26 5 -13 14 -16 42 -10 25 4 39 2 51
-11 10 -9 20 -13 26 -7 12 12 -19 82 -36 82 -8 0 -17 7 -20 15 -7 20 45 42
179 76 59 15 95 32 95 46 0 7 11 13 24 13 15 0 26 7 29 20 3 12 14 20 26 20
12 0 21 4 21 10 0 5 12 13 28 16 15 4 36 13 47 20 11 7 75 29 142 48 66 19
133 42 147 51 21 14 44 16 141 12 64 -3 122 -10 129 -16 11 -9 16 -5 24 19 10
27 13 29 38 20 14 -6 41 -8 59 -4z m-2795 -86 c0 -12 -28 -25 -36 -17 -9 9 6
27 22 27 8 0 14 -5 14 -10z m3210 -327 c34 -24 59 -55 60 -73 0 -9 -8 -27 -17
-40 -10 -14 -16 -27 -15 -30 2 -3 -6 -6 -17 -8 -15 -2 -24 6 -35 33 -15 35
-15 37 9 63 31 33 31 40 3 44 -12 2 -23 9 -26 16 -5 17 9 15 38 -5z m-2750
-496 c13 -49 5 -77 -19 -63 -14 9 -25 71 -17 102 9 34 20 22 36 -39z m2090
-507 c0 -5 -5 -10 -11 -10 -5 0 -7 5 -4 10 3 6 8 10 11 10 2 0 4 -4 4 -10z
m-440 -30 c24 -15 -5 -53 -63 -84 -67 -35 -109 -58 -141 -79 -14 -9 -34 -17
-44 -17 -16 0 -18 8 -17 68 3 99 5 102 84 103 36 1 77 5 91 9 35 11 72 11 90
0z m-772 -30 c41 -5 76 -11 79 -14 12 -12 -9 -55 -30 -61 -23 -7 -70 -28 -200
-89 -77 -36 -127 -46 -127 -25 0 6 10 24 21 41 l21 29 -25 56 c-37 82 -33 85
87 78 55 -4 134 -10 174 -15z m-1633 -586 c17 -9 40 -12 61 -8 18 3 42 3 54
-1 20 -6 21 -8 4 -26 -21 -23 -79 -26 -88 -4 -4 10 -20 15 -50 15 -49 0 -96
14 -96 29 0 15 85 11 115 -5z"/>
<path d="M3398 10099 c-24 -15 5 -31 35 -20 15 6 27 12 27 15 0 8 -49 13 -62
5z"/>
<path d="M3517 10103 c-11 -11 -8 -19 17 -46 32 -34 41 -21 14 21 -22 35 -22
35 -31 25z"/>
<path d="M3655 10000 c-3 -5 1 -10 9 -10 9 0 16 5 16 10 0 6 -4 10 -9 10 -6 0
-13 -4 -16 -10z"/>
<path d="M3593 9923 c-14 -5 -18 -33 -5 -33 10 1 42 26 42 34 0 7 -19 7 -37
-1z"/>
<path d="M3520 9864 c0 -8 5 -12 10 -9 6 4 8 11 5 16 -9 14 -15 11 -15 -7z"/>
<path d="M3600 9830 c0 -5 7 -7 15 -4 8 4 15 8 15 10 0 2 -7 4 -15 4 -8 0 -15
-4 -15 -10z"/>
<path d="M3545 9810 c-4 -7 -3 -16 3 -22 13 -13 54 0 49 15 -5 16 -43 21 -52
7z"/>
<path d="M3720 9711 c0 -11 5 -23 10 -26 6 -4 10 5 10 19 0 14 -4 26 -10 26
-5 0 -10 -9 -10 -19z"/>
<path d="M3850 9690 c0 -5 5 -10 10 -10 6 0 10 5 10 10 0 6 -4 10 -10 10 -5 0
-10 -4 -10 -10z"/>
<path d="M3680 9640 c0 -5 9 -10 20 -10 11 0 20 5 20 10 0 6 -9 10 -20 10 -11
0 -20 -4 -20 -10z"/>
<path d="M3672 9578 c-19 -19 -14 -28 13 -28 18 0 25 5 25 20 0 22 -20 26 -38
8z"/>
<path d="M3773 9569 c9 -6 15 -14 12 -20 -4 -5 0 -9 8 -9 12 0 27 20 27 36 0
2 -15 4 -32 4 -28 -1 -30 -2 -15 -11z"/>
<path d="M3945 9519 c-4 -6 0 -18 9 -27 15 -15 16 -15 16 5 0 25 -15 38 -25
22z"/>
<path d="M3805 9460 c-3 -5 1 -10 10 -10 9 0 13 5 10 10 -3 6 -8 10 -10 10 -2
0 -7 -4 -10 -10z"/>
<path d="M3915 9400 c-9 -14 13 -40 32 -40 8 0 17 9 20 19 3 11 12 22 22 24 9
3 -3 5 -26 6 -23 0 -45 -4 -48 -9z"/>
<path d="M4120 9316 c0 -9 7 -16 16 -16 17 0 14 22 -4 28 -7 2 -12 -3 -12 -12z"/>
<path d="M3944 9285 c-36 -31 -29 -37 22 -22 29 9 39 17 36 30 -5 24 -24 21
-58 -8z"/>
<path d="M5650 9296 c0 -9 5 -16 10 -16 6 0 10 4 10 9 0 6 -4 13 -10 16 -5 3
-10 -1 -10 -9z"/>
<path d="M4097 9264 c-8 -8 1 -24 13 -24 4 0 10 7 14 15 5 15 -14 21 -27 9z"/>
<path d="M5680 9244 c0 -17 5 -35 12 -42 6 -6 11 -28 10 -49 -1 -20 5 -44 13
-52 7 -9 15 -36 17 -61 3 -50 8 -52 85 -29 38 12 44 11 63 -6 35 -31 32 -10
-5 39 -19 25 -35 50 -35 54 0 5 -36 46 -80 92 -77 80 -80 83 -80 54z"/>
<path d="M4212 9170 c0 -14 2 -19 5 -12 2 6 2 18 0 25 -3 6 -5 1 -5 -13z"/>
<path d="M8670 9175 c0 -8 5 -15 10 -15 6 0 10 7 10 15 0 8 -4 15 -10 15 -5 0
-10 -7 -10 -15z"/>
<path d="M8742 9137 c-15 -16 -18 -27 -12 -37 8 -12 13 -13 30 -2 11 6 27 12
35 12 14 0 14 3 -1 25 -20 31 -25 31 -52 2z"/>
<path d="M8617 9130 c-3 -11 -1 -20 4 -20 5 0 9 9 9 20 0 11 -2 20 -4 20 -2 0
-6 -9 -9 -20z"/>
<path d="M8480 9109 c0 -5 5 -7 10 -4 6 3 10 8 10 11 0 2 -4 4 -10 4 -5 0 -10
-5 -10 -11z"/>
<path d="M8560 9089 c0 -9 -11 -20 -24 -23 -22 -5 -23 -8 -13 -31 7 -14 18
-25 25 -25 17 0 15 -10 -5 -26 -17 -13 -17 -15 1 -29 10 -8 22 -12 26 -10 11
7 10 128 0 145 -8 13 -10 13 -10 -1z"/>
<path d="M4485 9066 c-19 -14 -19 -15 -2 -21 22 -9 50 2 45 17 -6 18 -22 20
-43 4z"/>
<path d="M4720 9060 c-13 -8 -12 -10 3 -10 9 0 17 5 17 10 0 12 -1 12 -20 0z"/>
<path d="M4410 9040 c0 -19 3 -21 12 -12 9 9 9 15 0 24 -9 9 -12 7 -12 -12z"/>
<path d="M4354 9009 c-3 -5 -1 -9 5 -9 5 0 16 -3 25 -6 9 -3 16 -2 16 4 0 13
-38 23 -46 11z"/>
<path d="M4296 9002 c-2 -4 -1 -14 4 -22 7 -11 12 -12 21 -3 6 6 8 16 5 22 -8
13 -23 14 -30 3z"/>
<path d="M8470 8995 c-8 -9 -8 -15 -2 -15 12 0 26 19 19 26 -2 2 -10 -2 -17
-11z"/>
<path d="M4516 8964 c-4 -10 -12 -14 -22 -10 -14 5 -15 4 -4 -9 11 -13 80 -22
80 -10 0 6 -38 45 -44 45 -2 0 -7 -7 -10 -16z"/>
<path d="M4576 8971 c-3 -5 0 -14 8 -20 11 -9 15 -8 20 5 3 8 6 18 6 20 0 8
-29 4 -34 -5z"/>
<path d="M8300 8969 c0 -5 5 -7 10 -4 6 3 10 8 10 11 0 2 -4 4 -10 4 -5 0 -10
-5 -10 -11z"/>
<path d="M8433 8953 c-17 -6 -16 -23 1 -23 8 0 16 7 20 15 6 15 1 17 -21 8z"/>
<path d="M4647 8943 c-10 -10 -8 -43 2 -43 9 0 21 24 21 41 0 11 -14 12 -23 2z"/>
<path d="M4676 8874 c-27 -26 -18 -34 39 -34 42 0 55 3 55 15 0 9 -9 15 -24
15 -14 0 -28 5 -31 10 -9 14 -21 12 -39 -6z"/>
<path d="M4960 8870 c0 -24 15 -27 24 -4 9 22 8 24 -9 24 -8 0 -15 -9 -15 -20z"/>
<path d="M8460 8881 c0 -19 22 -23 38 -7 15 15 14 16 -11 16 -15 0 -27 -4 -27
-9z"/>
<path d="M4593 8863 c-24 -9 -13 -23 17 -23 20 0 30 5 30 15 0 15 -22 19 -47
8z"/>
<path d="M5000 8814 c0 -7 9 -18 20 -24 17 -9 20 -8 20 8 0 11 -9 22 -20 25
-13 3 -20 0 -20 -9z"/>
<path d="M8130 8790 c-4 -31 -8 -35 -35 -36 -47 -1 -55 -3 -55 -15 0 -8 14
-10 40 -6 31 4 42 1 49 -11 14 -25 17 -13 11 48 -5 48 -6 51 -10 20z"/>
<path d="M4685 8800 c-8 -13 20 -24 40 -16 8 3 15 10 15 16 0 13 -47 13 -55 0z"/>
<path d="M8270 8751 c-19 -37 10 -35 39 2 12 15 11 17 -7 17 -12 0 -26 -9 -32
-19z"/>
<path d="M4744 8745 c-3 -8 -3 -19 1 -25 3 -5 1 -10 -5 -10 -6 0 -8 -5 -4 -12
8 -13 44 26 44 48 0 19 -29 18 -36 -1z"/>
<path d="M7895 8689 c-4 -6 -5 -13 -2 -16 8 -7 47 7 47 18 0 13 -37 11 -45 -2z"/>
<path d="M7253 8646 c-4 -8 -17 -16 -28 -19 -11 -2 -1 -5 23 -6 45 -1 45 -1
36 23 -8 20 -20 21 -31 2z"/>
<path d="M7610 8628 c0 -25 3 -29 10 -18 13 20 13 50 0 50 -5 0 -10 -15 -10
-32z"/>
<path d="M6980 8624 c0 -8 5 -12 10 -9 6 4 8 11 5 16 -9 14 -15 11 -15 -7z"/>
<path d="M7717 8609 c-4 -15 -2 -19 10 -15 8 3 17 6 19 6 2 0 4 7 4 15 0 23
-27 18 -33 -6z"/>
<path d="M7836 8594 c-4 -9 -4 -19 -1 -22 2 -3 7 3 11 12 4 9 4 19 1 22 -2 3
-7 -3 -11 -12z"/>
<path d="M7352 8561 c4 -36 40 -40 56 -7 10 23 9 24 -24 28 -32 4 -35 2 -32
-21z"/>
<path d="M7560 8564 c-23 -23 -23 -24 -4 -24 23 0 44 18 44 37 0 19 -12 15
-40 -13z"/>
<path d="M7447 8574 c-3 -4 -2 -15 4 -25 12 -23 44 -26 35 -3 -3 9 -6 20 -6
25 0 10 -23 12 -33 3z"/>
<path d="M6477 8536 c-3 -8 -3 -17 0 -20 7 -7 33 13 33 25 0 15 -27 10 -33 -5z"/>
<path d="M6686 8532 c-4 -13 -5 -26 -2 -29 10 -11 18 4 14 29 l-4 23 -8 -23z"/>
<path d="M6801 8534 c0 -11 3 -14 6 -6 3 7 2 16 -1 19 -3 4 -6 -2 -5 -13z"/>
<path d="M6974 8525 c-3 -14 -4 -28 -1 -31 10 -10 27 7 27 26 0 30 -19 33 -26
5z"/>
<path d="M7290 8501 c-14 -28 -13 -41 5 -41 16 0 36 39 28 53 -8 13 -22 8 -33
-12z"/>
<path d="M7345 8510 c-3 -5 -1 -10 4 -10 6 0 11 5 11 10 0 6 -2 10 -4 10 -3 0
-8 -4 -11 -10z"/>
<path d="M6865 8499 c-9 -13 4 -64 13 -54 10 9 11 65 1 65 -4 0 -11 -5 -14
-11z"/>
<path d="M6480 8485 c0 -8 5 -15 10 -15 6 0 10 7 10 15 0 8 -4 15 -10 15 -5 0
-10 -7 -10 -15z"/>
<path d="M6545 8480 c-3 -5 1 -10 10 -10 9 0 13 5 10 10 -3 6 -8 10 -10 10 -2
0 -7 -4 -10 -10z"/>
<path d="M6726 8465 c-16 -25 -16 -25 11 -25 42 0 60 15 44 34 -19 23 -36 20
-55 -9z"/>
<path d="M6927 8473 c-12 -11 -8 -21 13 -26 22 -6 23 -5 14 17 -7 17 -16 20
-27 9z"/>
<path d="M6887 8433 c-4 -3 -7 -11 -7 -17 0 -6 5 -5 12 2 6 6 9 14 7 17 -3 3
-9 2 -12 -2z"/>
<path d="M7277 8434 c-14 -14 -6 -24 19 -24 16 0 24 5 22 13 -5 14 -31 21 -41
11z"/>
<path d="M6280 8218 c0 -7 5 -20 10 -28 8 -12 10 -9 10 13 0 15 -4 27 -10 27
-5 0 -10 -6 -10 -12z"/>
<path d="M10470 6710 c0 -5 7 -7 15 -4 8 4 15 8 15 10 0 2 -7 4 -15 4 -8 0
-15 -4 -15 -10z"/>
<path d="M10495 6630 c3 -5 8 -10 11 -10 2 0 4 5 4 10 0 6 -5 10 -11 10 -5 0
-7 -4 -4 -10z"/>
<path d="M10550 6339 c0 -5 5 -7 10 -4 6 3 10 8 10 11 0 2 -4 4 -10 4 -5 0
-10 -5 -10 -11z"/>
<path d="M296 10451 c-10 -16 5 -39 22 -36 9 2 20 4 25 4 14 2 7 29 -9 35 -22
8 -32 8 -38 -3z"/>
<path d="M7318 6433 c7 -3 16 -2 19 1 4 3 -2 6 -13 5 -11 0 -14 -3 -6 -6z"/>
<path d="M8323 6426 c-13 -6 -23 -16 -23 -23 0 -7 -7 -13 -15 -13 -7 0 -18 -6
-22 -12 -4 -7 -24 -22 -43 -32 -19 -11 -44 -29 -56 -42 -12 -12 -30 -24 -40
-26 -26 -5 -24 -32 4 -36 14 -2 22 2 22 12 0 8 10 18 23 21 12 4 40 24 62 45
22 22 60 57 84 80 44 40 45 47 4 26z"/>
<path d="M7376 6413 c-10 -10 -7 -41 5 -49 6 -3 24 4 41 16 19 14 38 20 51 16
27 -7 69 3 62 15 -6 9 -150 11 -159 2z"/>
<path d="M6900 6380 c0 -5 14 -10 30 -10 17 0 30 5 30 10 0 6 -13 10 -30 10
-16 0 -30 -4 -30 -10z"/>
<path d="M7120 6380 c0 -5 5 -10 11 -10 5 0 7 5 4 10 -3 6 -8 10 -11 10 -2 0
-4 -4 -4 -10z"/>
<path d="M7420 6320 c0 -5 7 -10 15 -10 8 0 15 5 15 10 0 6 -7 10 -15 10 -8 0
-15 -4 -15 -10z"/>
<path d="M7280 6290 c0 -5 11 -10 24 -10 14 0 28 5 31 10 4 6 -7 10 -24 10
-17 0 -31 -4 -31 -10z"/>
<path d="M6615 6270 c-18 -7 -18 -9 -3 -15 23 -9 61 -2 66 13 4 14 -31 15 -63
2z"/>
<path d="M6890 6259 c0 -5 5 -7 10 -4 6 3 10 8 10 11 0 2 -4 4 -10 4 -5 0 -10
-5 -10 -11z"/>
<path d="M7098 6263 c6 -2 18 -2 25 0 6 3 1 5 -13 5 -14 0 -19 -2 -12 -5z"/>
<path d="M7362 6253 c2 -10 14 -20 27 -21 19 -3 22 0 17 13 -3 9 -6 19 -6 21
0 2 -9 4 -21 4 -14 0 -19 -5 -17 -17z"/>
<path d="M7246 6241 c-29 -11 -2 -25 32 -16 20 5 23 8 11 16 -16 10 -18 10
-43 0z"/>
<path d="M6592 6211 c-11 -7 -10 -10 3 -15 20 -7 38 1 30 15 -7 11 -16 11 -33
0z"/>
<path d="M6523 6193 c-23 -9 -14 -33 12 -33 18 0 25 5 25 20 0 19 -12 24 -37
13z"/>
<path d="M7205 6150 c-3 -5 1 -10 9 -10 9 0 16 5 16 10 0 6 -4 10 -9 10 -6 0
-13 -4 -16 -10z"/>
<path d="M7325 6070 l-30 -6 29 -7 c16 -5 33 -4 38 1 14 14 -3 19 -37 12z"/>
<path d="M7205 5980 c-3 -5 -1 -10 4 -10 6 0 11 5 11 10 0 6 -2 10 -4 10 -3 0
-8 -4 -11 -10z"/>
<path d="M7441 5944 c0 -11 3 -14 6 -6 3 7 2 16 -1 19 -3 4 -6 -2 -5 -13z"/>
<path d="M7060 5751 c0 -22 16 -36 24 -22 8 12 -3 41 -15 41 -5 0 -9 -9 -9
-19z"/>
<path d="M7006 5735 c4 -8 8 -15 10 -15 2 0 4 7 4 15 0 8 -4 15 -10 15 -5 0
-7 -7 -4 -15z"/>
<path d="M6915 5660 c3 -5 10 -10 16 -10 5 0 9 5 9 10 0 6 -7 10 -16 10 -8 0
-12 -4 -9 -10z"/>
<path d="M6845 5586 c-18 -13 -18 -14 1 -24 25 -13 49 0 41 22 -8 20 -18 20
-42 2z"/>
<path d="M4907 6093 c-4 -3 -7 -15 -7 -25 0 -14 8 -18 34 -18 41 0 52 12 30
34 -16 16 -46 21 -57 9z"/>
<path d="M4700 5920 c0 -5 10 -10 23 -10 18 0 19 2 7 10 -19 13 -30 13 -30 0z"/>
<path d="M4690 5861 c0 -5 7 -11 15 -15 8 -3 15 -12 15 -21 0 -17 16 -20 25
-4 4 6 -2 19 -14 30 -21 20 -41 25 -41 10z"/>
<path d="M4065 5390 c3 -5 2 -24 -3 -42 -11 -42 -4 -110 12 -105 6 2 10 14 8
26 -2 11 6 33 17 47 16 20 18 30 10 45 -5 11 -7 24 -4 29 3 6 -5 10 -20 10
-15 0 -23 -4 -20 -10z"/>
<path d="M3030 5271 c0 -11 4 -22 9 -25 11 -7 20 14 13 32 -7 19 -22 14 -22
-7z"/>
<path d="M3042 5208 c-14 -14 -16 -42 -3 -33 5 3 12 1 16 -5 12 -19 24 -10 22
17 -3 30 -17 39 -35 21z"/>
<path d="M2340 5150 c0 -11 6 -20 14 -20 9 0 12 7 9 20 -3 11 -9 20 -14 20 -5
0 -9 -9 -9 -20z"/>
<path d="M5105 5140 c-3 -5 1 -10 10 -10 9 0 13 5 10 10 -3 6 -8 10 -10 10 -2
0 -7 -4 -10 -10z"/>
<path d="M5130 5076 c0 -14 4 -27 9 -30 12 -8 22 20 15 39 -9 23 -24 18 -24
-9z"/>
<path d="M4125 5020 c3 -5 8 -10 11 -10 2 0 4 5 4 10 0 6 -5 10 -11 10 -5 0
-7 -4 -4 -10z"/>
<path d="M3521 4934 c0 -11 3 -14 6 -6 3 7 2 16 -1 19 -3 4 -6 -2 -5 -13z"/>
<path d="M3515 4830 c-9 -14 4 -52 16 -45 12 8 12 55 0 55 -6 0 -13 -5 -16
-10z"/>
<path d="M5733 4305 c-3 -9 -3 -19 1 -22 8 -9 37 18 30 28 -8 14 -24 11 -31
-6z"/>
<path d="M5845 4191 c-3 -5 -1 -12 5 -16 13 -8 50 3 50 16 0 12 -47 12 -55 0z"/>
<path d="M5796 4172 c-10 -10 -6 -42 5 -42 10 0 39 24 39 33 0 7 -38 15 -44 9z"/>
<path d="M6317 4062 c6 -25 33 -51 33 -33 0 7 -9 21 -19 33 l-20 20 6 -20z"/>
<path d="M6366 3975 c4 -8 8 -15 10 -15 2 0 4 7 4 15 0 8 -4 15 -10 15 -5 0
-7 -7 -4 -15z"/>
<path d="M6400 3904 c0 -8 5 -12 10 -9 6 4 8 11 5 16 -9 14 -15 11 -15 -7z"/>
<path d="M6430 3856 c0 -14 5 -26 10 -26 6 0 10 9 10 19 0 11 -4 23 -10 26 -6
4 -10 -5 -10 -19z"/>
<path d="M6443 3800 c-11 -16 -10 -21 7 -30 16 -9 22 -8 26 5 7 17 -1 45 -13
45 -5 0 -14 -9 -20 -20z"/>
<path d="M6300 3699 c-19 -10 -41 -27 -48 -36 -11 -15 -10 -19 5 -25 32 -12
43 -9 53 16 7 18 14 23 30 19 24 -6 70 14 70 32 0 18 -73 14 -110 -6z"/>
<path d="M6197 3654 c-14 -14 -7 -35 11 -32 9 2 17 10 17 17 0 16 -18 25 -28
15z"/>
<path d="M5905 3530 c-3 -9 -17 -21 -33 -27 -26 -10 -25 -11 16 -12 62 -1 101
41 47 51 -17 4 -26 0 -30 -12z"/>
<path d="M7900 5029 c-22 -6 -20 -7 13 -8 38 -1 47 3 25 11 -7 3 -24 1 -38 -3z"/>
<path d="M7928 4963 c6 -2 18 -2 25 0 6 3 1 5 -13 5 -14 0 -19 -2 -12 -5z"/>
<path d="M7970 4910 c0 -5 9 -10 20 -10 11 0 20 5 20 10 0 6 -9 10 -20 10 -11
0 -20 -4 -20 -10z"/>
<path d="M7790 4880 c0 -5 7 -10 15 -10 8 0 15 5 15 10 0 6 -7 10 -15 10 -8 0
-15 -4 -15 -10z"/>
<path d="M7725 4820 c3 -5 12 -7 20 -3 21 7 19 13 -6 13 -11 0 -18 -4 -14 -10z"/>
<path d="M7772 4792 c-18 -16 -29 -32 -25 -35 10 -11 48 -8 61 5 6 6 15 8 19
4 4 -4 1 -11 -7 -16 -28 -17 -3 -20 49 -4 50 15 61 34 19 34 -11 0 -26 6 -32
14 -22 28 -51 27 -84 -2z"/>
<path d="M8268 4733 c7 -3 16 -2 19 1 4 3 -2 6 -13 5 -11 0 -14 -3 -6 -6z"/>
<path d="M8347 4733 c18 -2 50 -2 70 0 21 2 7 4 -32 4 -38 0 -55 -2 -38 -4z"/>
<path d="M7837 4723 c-3 -5 -3 -25 -1 -45 2 -24 -2 -40 -11 -45 -11 -7 -10
-12 5 -30 15 -20 20 -20 36 -8 11 8 40 15 67 15 26 0 47 4 47 9 0 6 -21 11
-47 13 -48 3 -48 3 -47 38 0 40 -34 77 -49 53z"/>
<path d="M7950 4710 c0 -6 24 -10 53 -9 41 1 47 3 27 9 -36 12 -80 12 -80 0z"/>
<path d="M7780 4680 c0 -5 7 -10 15 -10 8 0 15 5 15 10 0 6 -7 10 -15 10 -8 0
-15 -4 -15 -10z"/>
<path d="M7637 4663 c-18 -17 -5 -42 24 -48 30 -7 56 3 31 12 -7 3 -21 14 -31
24 -10 11 -21 16 -24 12z"/>
<path d="M8385 4650 c3 -5 33 -10 65 -10 32 0 62 5 65 10 4 6 -20 10 -65 10
-45 0 -69 -4 -65 -10z"/>
<path d="M7756 4601 c-4 -7 -5 -15 -2 -18 9 -9 19 4 14 18 -4 11 -6 11 -12 0z"/>
<path d="M8242 4603 c-12 -2 -20 -9 -17 -14 8 -12 322 -12 330 1 3 6 3 10 -2
11 -52 4 -294 6 -311 2z"/>
<path d="M7978 4573 c-34 -9 -18 -23 26 -23 46 0 68 13 40 24 -17 7 -39 6 -66
-1z"/>
<path d="M7818 4538 c6 -23 27 -29 58 -18 34 13 23 27 -24 32 -33 3 -38 0 -34
-14z"/>
<path d="M8155 4510 c-8 -12 32 -21 70 -16 17 3 35 5 40 5 6 1 3 6 -5 11 -20
13 -97 13 -105 0z"/>
<path d="M8397 4513 c-16 -4 -15 -6 5 -23 29 -23 17 -28 -66 -32 -37 -2 -61
-8 -64 -16 -3 -10 24 -12 130 -8 73 2 152 5 176 5 60 1 44 21 -17 21 -39 0
-56 6 -86 30 -38 30 -44 32 -78 23z"/>
<path d="M8308 4503 c7 -3 16 -2 19 1 4 3 -2 6 -13 5 -11 0 -14 -3 -6 -6z"/>
<path d="M7757 4484 c-3 -3 -3 -12 -1 -19 4 -10 14 -11 34 -5 24 7 30 5 35
-11 7 -21 40 -26 51 -7 12 18 -35 48 -75 48 -21 0 -40 -3 -44 -6z"/>
<path d="M7935 4481 c-7 -12 59 -26 81 -17 8 3 12 10 9 16 -8 13 -82 13 -90 1z"/>
<path d="M8060 4430 c-32 -21 30 -39 74 -21 11 4 15 10 10 13 -21 13 -70 17
-84 8z"/>
<path d="M8402 4397 c-12 -6 -21 -15 -19 -21 5 -17 55 -38 75 -32 16 5 47 45
40 51 -11 9 -77 11 -96 2z"/>
<path d="M8122 4363 c3 -15 17 -18 87 -21 57 -2 88 1 99 10 13 11 8 14 -34 20
-27 3 -73 7 -102 7 -46 1 -53 -2 -50 -16z"/>
<path d="M3686 4804 c-8 -21 -1 -28 19 -20 9 3 15 11 13 18 -7 19 -25 20 -32
2z"/>
<path d="M1485 4280 c3 -5 14 -10 23 -10 15 0 15 2 2 10 -20 13 -33 13 -25 0z"/>
<path d="M1127 4223 c-12 -11 -8 -23 8 -23 8 0 15 7 15 15 0 16 -12 20 -23 8z"/>
<path d="M925 4140 c-3 -6 1 -13 10 -16 19 -8 30 0 20 15 -8 14 -22 14 -30 1z"/>
<path d="M660 4021 c0 -6 5 -13 10 -16 6 -3 10 1 10 9 0 9 -4 16 -10 16 -5 0
-10 -4 -10 -9z"/>
<path d="M554 3916 c-8 -22 3 -35 26 -29 26 7 25 19 0 33 -16 9 -22 8 -26 -4z"/>
<path d="M460 3856 c0 -8 3 -21 6 -30 5 -14 8 -14 21 0 12 12 13 18 3 29 -16
19 -30 19 -30 1z"/>
<path d="M465 3777 c-4 -10 -5 -21 -1 -24 10 -10 18 4 13 24 -4 17 -4 17 -12
0z"/>
<path d="M520 3590 c0 -5 5 -10 10 -10 6 0 10 5 10 10 0 6 -4 10 -10 10 -5 0
-10 -4 -10 -10z"/>
<path d="M9585 4169 c-4 -6 -2 -15 5 -19 17 -10 42 -1 37 14 -5 16 -34 19 -42
5z"/>
<path d="M9710 4110 c0 -26 5 -40 13 -40 9 0 11 12 9 40 -2 22 -8 40 -13 40
-5 0 -9 -18 -9 -40z"/>
<path d="M9771 4086 c-9 -10 -8 -16 4 -26 13 -11 15 -8 15 14 0 30 -3 32 -19
12z"/>
<path d="M9766 3985 c-3 -8 -1 -15 4 -15 6 0 10 7 10 15 0 8 -2 15 -4 15 -2 0
-6 -7 -10 -15z"/>
<path d="M9933 3869 c14 -8 22 -8 30 0 8 8 3 11 -18 11 -26 -1 -28 -2 -12 -11z"/>
<path d="M10001 3834 c0 -11 3 -14 6 -6 3 7 2 16 -1 19 -3 4 -6 -2 -5 -13z"/>
<path d="M10120 3730 c0 -19 3 -21 12 -12 9 9 9 15 0 24 -9 9 -12 7 -12 -12z"/>
<path d="M10172 3710 c2 -24 8 -40 16 -40 13 0 15 22 6 58 -10 37 -25 25 -22
-18z"/>
<path d="M10140 3647 c0 -19 10 -27 26 -20 21 8 17 33 -6 33 -11 0 -20 -6 -20
-13z"/>
<path d="M10246 3642 c-2 -4 -1 -14 4 -21 10 -17 31 -5 23 14 -6 16 -19 20
-27 7z"/>
<path d="M10150 3280 c-7 -17 -9 -37 -4 -47 6 -14 9 -9 12 20 4 40 26 51 37
17 3 -11 10 -20 15 -20 5 0 7 6 4 14 -3 8 0 17 5 21 18 11 2 25 -28 25 -22 0
-31 -7 -41 -30z"/>
<path d="M7527 3213 c-12 -12 -7 -36 11 -49 26 -20 42 -17 42 9 0 35 -33 60
-53 40z"/>
<path d="M7213 3103 c-20 -8 -15 -17 17 -36 25 -15 33 -16 52 -5 l23 13 -25 3
c-14 2 -29 10 -33 18 -8 15 -14 16 -34 7z"/>
<path d="M7240 2860 c0 -5 9 -10 19 -10 11 0 23 5 26 10 4 6 -5 10 -19 10 -14
0 -26 -4 -26 -10z"/>
<path d="M6583 2817 c-28 -41 -28 -47 -3 -47 20 0 40 33 40 66 0 23 -13 16
-37 -19z"/>
<path d="M7188 2833 c6 -2 18 -2 25 0 6 3 1 5 -13 5 -14 0 -19 -2 -12 -5z"/>
<path d="M7110 2810 c-11 -7 -7 -10 18 -10 17 0 32 5 32 10 0 13 -30 13 -50 0z"/>
<path d="M6627 2769 c-27 -28 -67 -39 -67 -19 0 16 -50 12 -56 -5 -3 -8 -38
-35 -76 -61 l-71 -46 33 -21 c30 -19 31 -21 14 -34 -17 -12 -17 -13 4 -13 12
0 22 5 22 11 0 6 11 25 25 43 14 17 29 36 34 42 5 6 35 12 66 13 32 1 67 6 76
12 10 5 40 9 66 8 26 -1 58 1 71 5 31 10 15 30 -44 52 -24 9 -44 23 -44 30 0
22 -23 15 -53 -17z"/>
<path d="M7005 2780 c-4 -6 10 -10 34 -10 23 0 41 5 41 10 0 6 -15 10 -34 10
-19 0 -38 -4 -41 -10z"/>
<path d="M6873 2763 c-24 -2 -43 -8 -43 -12 0 -11 74 -22 97 -15 10 3 25 8 33
10 13 5 13 6 0 14 -8 6 -22 9 -30 8 -8 -1 -34 -3 -57 -5z"/>
<path d="M7510 2750 c0 -5 7 -10 16 -10 8 0 12 5 9 10 -3 6 -10 10 -16 10 -5
0 -9 -4 -9 -10z"/>
</g>
</svg>
